<?xml version="1.0" encoding="UTF-8" standalone="no"?>
<svg
   xmlns:dc="http://purl.org/dc/elements/1.1/"
   xmlns:cc="http://creativecommons.org/ns#"
   xmlns:rdf="http://www.w3.org/1999/02/22-rdf-syntax-ns#"
   xmlns:svg="http://www.w3.org/2000/svg"
   xmlns="http://www.w3.org/2000/svg"
   xmlns:sodipodi="http://sodipodi.sourceforge.net/DTD/sodipodi-0.dtd"
   xmlns:inkscape="http://www.inkscape.org/namespaces/inkscape"
   width="75.709251mm"
   height="82.022934mm"
   viewBox="0 0 75.709251 82.022934"
   version="1.1"
   id="svg8"
   inkscape:version="1.0.1 (3bc2e813f5, 2020-09-07)"
   sodipodi:docname="logo-inkscape.svg">
  <defs
     id="defs2" />
  <sodipodi:namedview
     id="base"
     pagecolor="#ffffff"
     bordercolor="#666666"
     borderopacity="1.0"
     inkscape:pageopacity="0.0"
     inkscape:pageshadow="2"
     inkscape:zoom="1.4"
     inkscape:cx="133.35926"
     inkscape:cy="174.13081"
     inkscape:document-units="mm"
     inkscape:current-layer="layer1"
     inkscape:document-rotation="0"
     showgrid="false"
     inkscape:window-width="1624"
     inkscape:window-height="1228"
     inkscape:window-x="1977"
     inkscape:window-y="386"
     inkscape:window-maximized="0"
     fit-margin-top="0"
     fit-margin-left="0"
     fit-margin-right="0"
     fit-margin-bottom="0" />
  <metadata
     id="metadata5">
    <rdf:RDF>
      <cc:Work
         rdf:about="">
        <dc:format>image/svg+xml</dc:format>
        <dc:type
           rdf:resource="http://purl.org/dc/dcmitype/StillImage" />
        <dc:title></dc:title>
      </cc:Work>
    </rdf:RDF>
  </metadata>
  <g
     inkscape:label="Layer 1"
     inkscape:groupmode="layer"
     id="layer1"
     transform="translate(-66.720258,-107.20751)">
    <path
       id="path869"
       style="color:#000000;font-style:normal;font-variant:normal;font-weight:normal;font-stretch:normal;font-size:medium;line-height:normal;font-family:sans-serif;font-variant-ligatures:normal;font-variant-position:normal;font-variant-caps:normal;font-variant-numeric:normal;font-variant-alternates:normal;font-variant-east-asian:normal;font-feature-settings:normal;font-variation-settings:normal;text-indent:0;text-align:start;text-decoration:none;text-decoration-line:none;text-decoration-style:solid;text-decoration-color:#000000;letter-spacing:normal;word-spacing:normal;text-transform:none;writing-mode:lr-tb;direction:ltr;text-orientation:mixed;dominant-baseline:auto;baseline-shift:baseline;text-anchor:start;white-space:normal;shape-padding:0;shape-margin:0;inline-size:0;clip-rule:nonzero;display:inline;overflow:visible;visibility:visible;opacity:1;isolation:auto;mix-blend-mode:normal;color-interpolation:sRGB;color-interpolation-filters:linearRGB;solid-color:#000000;solid-opacity:1;vector-effect:none;fill:#000000;fill-opacity:1;fill-rule:nonzero;stroke:none;stroke-width:1.00157;stroke-linecap:butt;stroke-linejoin:miter;stroke-miterlimit:4;stroke-dasharray:none;stroke-dashoffset:0;stroke-opacity:1;color-rendering:auto;image-rendering:auto;shape-rendering:auto;text-rendering:auto;enable-background:accumulate;stop-color:#000000;stop-opacity:1"
       d="m 411.07617,405.19727 c -0.77671,0.013 -1.62951,0.0623 -2.56445,0.14257 -4.25409,0.36514 -8.16282,1.62476 -13.5,4.34961 -5.81666,2.96973 -8.18882,3.68985 -10.51172,3.19141 -1.64999,-0.35407 -4.79283,-0.69671 -6.98438,-0.76172 -3.69646,-0.10976 -4.45579,0.38464 -10.5,6.83984 -6.96658,7.44031 -10.52179,9.4395 -25.71289,14.46094 C 331.33261,436.71556 328,439.1106 328,442.98242 c 0,3.41477 5.6195,10.84526 12.38672,16.37891 4.34485,3.55287 4.598,3.99798 3.16797,5.57812 -5.916,6.53711 5.6754,8.13846 19.67187,2.7168 3.69949,-1.43305 11.12646,-3.2643 16.50391,-4.06836 5.37747,-0.80406 10.52231,-1.74805 11.43359,-2.09766 1.48668,-0.57048 1.59943,0.21263 1.0918,7.61915 -0.4969,7.24909 -0.87873,8.52149 -3.12891,10.45703 -2.13479,1.83624 -2.35174,2.45941 -1.29687,3.73047 0.85436,1.0292 0.92616,1.73661 0.21875,2.17382 -1.61231,0.99648 -1.2458,3.66566 0.69922,5.08789 0.96151,0.70315 1.51336,1.51398 1.22461,1.80274 -0.28876,0.28875 -5.46463,1.02045 -11.5,1.62695 -39.58367,3.97769 -71.8598,18.24032 -96.04102,42.4375 -22.07614,22.0907 -31.52832,45.0209 -30.125,73.07422 0.67041,13.4019 2.5923,21.18677 8.17774,33.12305 6.01455,12.8533 11.44631,20.50929 21.91992,30.89453 11.84403,11.74409 20.73048,17.94135 32.51758,22.67578 5.26824,2.11604 12.72812,5.40163 16.57812,7.30273 11.68243,5.76862 32.19996,10.30008 51.5,11.37305 25.95602,1.44299 50.76425,-1.8241 72.29883,-9.52148 9.32825,-3.33434 28.12773,-12.91453 32.10156,-16.35938 1.70498,-1.47798 4.31762,-2.98325 5.80664,-3.3457 3.46862,-0.84401 19.33807,-15.92207 25.81055,-24.52344 17.32059,-23.01755 23.42552,-52.2766 16.50781,-79.11914 -2.24224,-8.70055 -9.26123,-23.37021 -15.0918,-31.54102 -11.06286,-15.5032 -29.35205,-30.46444 -48.93359,-40.02929 -19.0481,-9.30425 -38.04721,-14.42377 -62.5,-16.8418 -7.425,-0.73421 -12.0861,-1.39139 -10.35742,-1.46094 3.28577,-0.1322 4.73535,-1.89803 3.37109,-4.10547 -0.47357,-0.76773 -1.86744,-1.0913 -3.4082,-0.79687 -1.4335,0.27398 -2.60547,0.1403 -2.60547,-0.29688 0,-0.43721 1.23751,-0.93747 2.75,-1.11132 1.97786,-0.22761 2.75,-0.87796 2.75,-2.31641 0,-1.70551 -0.58864,-1.96518 -4,-1.76562 -2.63259,0.15397 -3.52289,-0.0687 -2.60352,-0.6504 0.98933,-0.62596 1.45246,-3.34592 1.58399,-9.31054 0.10227,-4.63431 0.50602,-8.94244 0.89648,-9.57422 1.16009,-1.87707 9.42898,-0.19961 17.09375,3.4668 3.83449,1.83424 7.47501,3.33398 8.08789,3.33398 0.61285,0 3.91716,2.25002 7.34375,5 3.42656,2.74998 6.92329,5 7.77149,5 1.15294,0 1.38214,0.64301 0.90429,2.54688 -1.29074,5.14276 9.80753,11.86764 13.9336,8.44335 2.11483,-1.75517 1.85199,-3.82486 -0.95117,-7.5 l -2.43946,-3.19921 5.68946,-1.25586 c 6.96831,-1.53944 8.48874,-2.60547 7.18945,-5.03321 -0.8095,-1.51256 -0.44569,-1.88355 2.36133,-2.41015 5.20785,-0.97697 8.52961,-5.46831 12.08203,-16.33789 2.60096,-7.95833 1.29202,-10.63247 -11.71484,-23.94336 -6.23743,-6.38325 -12.53315,-13.92936 -14.61329,-17.51367 -2.88196,-4.96589 -4.22701,-6.36415 -6.35742,-6.61133 -2.31227,-0.26846 -3.20278,0.47138 -6.17969,5.125 -3.81218,5.95944 -4.96253,6.6965 -10.41015,6.67383 -5.91583,-0.0238 -8.39275,-1.85292 -8.6543,-6.39258 -0.27816,-4.82693 -2.00051,-6.48538 -7.4375,-6.39453 z M 411.46875,409 c 2.23525,0 2.53125,0.41776 2.53125,3.56641 0,1.96116 0.46025,4.42622 1.02344,5.47851 1.34967,2.52185 11.0759,5.34756 15.53125,4.51172 4.20714,-0.78928 8.78344,-4.54324 10.45312,-8.57422 0.69665,-1.68189 1.76674,-2.89897 2.37891,-2.70508 0.61221,0.19412 2.43973,2.7983 4.06055,5.78711 1.68854,3.11369 7.57676,10.13243 13.78906,16.43555 5.96311,6.05034 11.11189,12.07129 11.44336,13.38086 0.6991,2.76374 -1.76564,11.16737 -4.6543,15.86914 -1.61306,2.62556 -2.64128,3.25 -5.35547,3.25 -3.75931,0 -7.26537,3.00837 -6.33398,5.43555 0.42168,1.09886 -0.42841,1.76731 -3.12696,2.45507 -10.73128,2.7351 -13.73753,2.14539 -21.56054,-4.22656 C 428.49854,467.09844 425.36519,465 424.68359,465 c -0.6816,0 -4.48541,-1.55555 -8.45312,-3.45703 -9.15247,-4.38607 -18.09107,-5.70948 -27.14844,-4.01758 -3.6198,0.67616 -9.2614,1.55347 -12.53515,1.94922 -3.27376,0.39572 -9.57375,2.06437 -14,3.70703 -4.42624,1.64266 -9.22813,3.21685 -10.67188,3.49805 -2.30204,0.4484 -2.625,0.18345 -2.625,-2.14258 0,-1.9835 -2.17496,-4.87346 -8.625,-11.46484 -4.74375,-4.84774 -8.625,-9.30677 -8.625,-9.90821 0,-1.51581 2.1383,-2.53249 14.91406,-7.08984 14.2995,-5.10093 18.24734,-7.37805 22.10938,-12.75586 4.94513,-6.88596 6.69178,-7.67094 13.90429,-6.25195 5.84788,1.15048 6.22879,1.09722 10,-1.39844 C 397.40118,412.70754 407.70918,409 411.46875,409 Z m 32.68945,72.50391 c 0.45732,-0.0726 1.05053,0.27969 1.94141,1.08593 1.04542,0.94606 1.90039,2.09973 1.90039,2.56446 0,1.23261 -1.35695,1.03654 -3.46094,-0.50196 -1.08053,-0.78867 -1.53169,-1.8546 -1.09179,-2.5664 0.21149,-0.34222 0.43654,-0.53851 0.71093,-0.58203 z m -49.33008,17.65039 c 28.06164,-0.20356 51.56105,5.04403 74.67188,16.59961 37.52568,18.76305 60.92524,49.80023 63.13672,83.74609 1.73393,26.61577 -8.59897,50.75948 -30.86133,72.11328 -19.67856,18.87542 -44.99198,31.05372 -76.88477,36.99219 -9.77873,1.82079 -40.14751,2.6677 -50.24414,1.40039 -41.52791,-5.21261 -78.30229,-24.70205 -98.86523,-52.39453 -28.63276,-38.56029 -23.44597,-85.43772 13.27734,-119.98438 25.3883,-23.88347 59.76332,-37.05676 100.09571,-38.35937 1.91257,-0.0618 3.80305,-0.0997 5.67382,-0.11328 z M 394,526.60742 c -50.20358,-0.0127 -59.49316,0.64117 -68.63867,4.82813 -11.78878,5.39705 -21.17712,18.00375 -23.50977,31.56836 -1.49685,8.70425 -1.51894,81.2705 -0.0273,89.87304 2.85684,16.47625 13.72032,29.11449 29.17578,33.94336 4.49964,1.40584 20.72105,3.16819 38.5,4.1836 26.83559,1.53259 76.41861,-0.96772 87.94141,-4.43555 16.14746,-4.85968 26.76184,-19.02616 28.67382,-38.26758 1.31876,-13.27037 1.27205,-68.40774 -0.0684,-80.78906 -1.87374,-17.30805 -8.982,-28.40573 -22.4629,-35.06836 C 452.77533,527.10145 447.03584,526.62254 394,526.60742 Z M 396.16797,531 c 18.79823,-6e-4 24.7855,0.29737 25.16992,1.25 0.27723,0.68734 0.53932,0.8 0.58203,0.25 0.0485,-0.62585 3.35336,-0.81294 8.83008,-0.5 7.78231,0.44462 9.24835,0.85017 13.25,3.6582 4.94098,3.46715 12.93369,11.3418 11.51172,11.3418 -0.49172,0 -0.15317,0.5625 0.75195,1.25 4.1331,3.13935 10.92696,22.06401 13.12891,36.57422 0.50986,3.35943 0.38552,2.38613 0.4082,3.73633 0.008,0.53314 0.009,1.27185 0.0352,1.77929 0.10118,1.87699 0.7778,6.13148 1.32617,26.54883 0.68069,25.34366 1.4779,33.52701 4.28711,44.00586 l 1.44531,5.39453 -6.19726,6.19336 c -8.3709,8.36402 -13.57751,10.24871 -33.17383,12.00781 -24.3185,2.18298 -38.37651,2.6584 -36.14258,1.22071 1.0343,-0.66565 4.63429,-3.20751 8,-5.64844 3.36574,-2.44089 9.94417,-6.45809 14.61914,-8.92578 13.91006,-7.3423 16.9828,-10.58357 16.99414,-17.93555 0.008,-5.12194 -1.85101,-9.06321 -5.875,-12.44922 -1.55647,-0.66907 -2.92008,-1.57378 -4.57617,-2.52929 5.68615,-5.50718 9.32812,-14.07857 9.32812,-23.67383 0,-16.52886 -10.80036,-30.0293 -24.25586,-30.0293 -13.45549,-4e-5 -24.25785,13.50044 -24.25781,30.0293 -1e-5,2.1644 0.18902,4.27421 0.54297,6.31055 -5.03908,-1.77196 -9.70764,-1.70501 -16.15625,0.25 0.31793,-1.94307 0.48828,-3.96729 0.48828,-6.05079 0,-7.20257 -2.00036,-13.73317 -5.26953,-18.49023 -3.26917,-4.7571 -7.84305,-7.75977 -12.92578,-7.75977 -5.08274,0 -9.65662,3.00267 -12.92578,7.75977 -3.26917,4.75706 -5.27149,11.28766 -5.27149,18.49023 0,7.20254 2.00232,13.72728 5.27149,18.48438 1.47008,2.13917 3.2072,3.91375 5.13281,5.22851 -1.28305,0.4862 -3.6225,1.70565 -5.53125,2.91016 -2.0686,2.44604 -4.23635,2.41115 -6.35742,6.02344 -2.43566,4.24392 -1.11451,9.51648 3.69336,14.73242 5.58704,6.13591 8.59341,7.86849 18.13867,16.2793 4.69905,4.45292 7.03111,7.28325 6,7.28125 -5.50096,-0.01 -32.26037,-3.07501 -34.5957,-3.96289 -2.10186,-0.79918 -2.61894,-1.49282 -2.08594,-2.79883 0.38968,-0.95486 1.89322,-4.88631 3.3418,-8.73633 l 2.63476,-7 0.53906,-46.5 c 0.58511,-50.38745 0.44944,-49.11316 6.50782,-61 2.98992,-5.86636 9.34605,-13.19508 10.71093,-12.35156 0.60052,0.37115 0.78077,0.19418 0.41211,-0.40235 -0.93224,-1.50841 4.80511,-6.06136 11.84766,-9.40039 l 6,-2.84375 z m 110.74219,38.68164 c -3.06452,0.0487 -6.17422,1.43013 -8.2793,4.43555 -3.33317,4.75876 -0.81302,12.65148 4.75781,14.90234 3.16664,1.27945 5.39615,1.14345 8.63086,-0.5293 3.68738,-1.90681 4.98047,-4.31706 4.98047,-9.28711 0,-5.98029 -4.98231,-9.60262 -10.08984,-9.52148 z m -0.13672,2.10547 c 8.35695,-0.23739 11.50687,10.94783 4.15429,14.75 C 509.3717,587.34177 507.36731,588 506.47266,588 503.93769,588 499,582.47124 499,579.63281 c 0,-3.81539 3.88381,-7.73534 7.77344,-7.8457 z m -91.15821,13.73047 c 12.78252,0 23.25196,12.93776 23.25196,29.03125 0,9.48892 -3.64612,17.87069 -9.25391,23.16015 -1.5557,-0.84655 -3.39182,-1.70915 -5.88281,-2.46679 l -7.77149,-2.56836 1.95899,-2.08594 c 4.75302,-5.06339 5.15198,-18.06967 0.71289,-23.23047 -6.59717,-7.6696 -15.85244,2.6143 -14.28711,15.875 l 0.55859,4.73047 -3.73632,-2.35937 c -3.02228,-1.88729 -5.65689,-3.31627 -8.16797,-4.31836 -0.41297,-2.16082 -0.63672,-4.41415 -0.63672,-6.73633 0,-16.09349 10.47143,-29.03129 23.2539,-29.03125 z m -57.57812,4.29492 c 4.68891,0 8.96317,2.76312 12.09766,7.32422 3.13448,4.56109 5.09375,10.90533 5.09375,17.92187 0,2.219 -0.20884,4.36067 -0.58008,6.40625 -1.11661,0.36299 -2.26809,0.76283 -3.50196,1.23243 l -5.9375,2.84961 -0.41992,-5.78711 c -0.69358,-9.58916 -5.97317,-14.38488 -10.51367,-9.55079 -2.21241,2.35548 -4.3371,9.50431 -3.73437,12.56641 1.20819,6.13807 1.72421,7.48985 3.5664,9.33203 1.94787,1.94786 1.96694,2.15561 0.34375,3.94922 -0.76015,0.83997 -2.01805,1.73243 -3.09179,2.24805 -2.02773,-1.25967 -3.86739,-3.06808 -5.42188,-5.33008 -3.13448,-4.5611 -5.09375,-10.89951 -5.09375,-17.91602 0,-7.01654 1.95927,-13.36078 5.09375,-17.92187 3.13448,-4.5611 7.4107,-7.32422 12.09961,-7.32422 z M 500.22266,593 C 498.59273,593 495,596.1804 495,597.62305 c 0,0.82994 0.46581,2.37949 1.03516,3.44336 C 497.93724,604.62045 505,602.54133 505,598.42773 505,596.9219 501.54791,593 500.22266,593 Z m 14.80664,0.68555 c -0.99122,0.002 -2.01996,0.32059 -2.96485,0.98242 -2.28196,1.59836 -2.72767,5.27037 -0.86523,7.13281 3.42516,3.42516 10.1756,-1.36542 7.9043,-5.60937 -0.87428,-1.63363 -2.4222,-2.50902 -4.07422,-2.50586 z m -0.28516,1.70312 c 0.44118,0.0255 0.90446,0.40251 1.64844,1.14649 1.29781,1.29781 1.41471,1.99167 0.51953,3.07031 -0.63632,0.76671 -1.79149,1.39453 -2.56641,1.39453 -2.11309,0 -2.82612,-2.94727 -1.125,-4.64844 0.66259,-0.66249 1.08226,-0.98844 1.52344,-0.96289 z m -14.96289,0.29688 c 1.70759,-0.0666 3.40176,1.67054 2.66602,3.59179 -0.82948,2.15709 -4.30508,2.25572 -5.11524,0.14454 -0.33294,-0.86763 0.0384,-2.22204 0.82617,-3.00977 0.48259,-0.48258 1.05367,-0.70435 1.62305,-0.72656 z m -115.72266,27.85742 c 6.22568,-0.0409 7.03701,0.24429 16,5.61719 6.12718,3.67298 12.18686,6.40018 17.26368,7.76757 C 431.90894,640.85652 437,644.8998 437,652.55859 c 0,5.83072 -2.80835,8.9045 -13.13281,14.37696 -4.60226,2.43942 -12.50807,7.25355 -17.56836,10.69726 -5.06034,3.44372 -11.55463,6.96006 -14.43164,7.81446 -11.58584,3.44061 -19.45202,0.90488 -29.36719,-9.46289 -2.2,-2.30041 -7.26899,-6.87134 -11.26367,-10.15821 -13.55706,-11.15478 -13.63556,-16.57841 -0.33789,-23.31055 1.86941,-0.94639 6.49988,-4.63264 10.28906,-8.1914 8.66135,-8.13468 14.15425,-10.72418 22.87109,-10.78125 z M 373.93359,631 C 372.22377,631 369,632.98339 369,634.03516 c 0,1.09319 2.06577,1.26004 4.41797,0.35742 C 375.18444,633.71472 375.59696,631 373.93359,631 Z m 18.11914,0.29492 c -0.27454,0.0117 -0.52664,0.0572 -0.74414,0.14063 -1.23847,0.47527 -1.29567,0.87503 -0.29882,2.07617 1.36543,1.64523 5.99023,2.04938 5.99023,0.52344 0,-1.27988 -3.02543,-2.82197 -4.94727,-2.74024 z m 35.52149,17.00977 c -0.65787,-0.0222 -3.80668,2.11382 -7.31055,4.98047 -7.73064,6.3247 -16.41264,11.46918 -24.92187,14.76757 -4.471,1.73303 -7.9936,2.27912 -15.00977,2.33204 -8.77632,0.0661 -9.49971,-0.10064 -16.95898,-3.90821 -5.89462,-3.00892 -8.77497,-5.23686 -11.83203,-9.15234 -2.22251,-2.84659 -4.37852,-5.20918 -4.79102,-5.25 -3.50657,-0.34779 5.53607,11.0854 11.85742,14.99219 1.93586,1.19644 5.62737,2.99992 8.20508,4.00781 5.91376,2.31231 17.62428,2.48265 25.72656,0.375 7.51854,-1.95579 18.98682,-8.1049 26.98438,-14.46875 6.95531,-5.53451 9.04286,-7.74815 8.14844,-8.64258 -0.0211,-0.0211 -0.0538,-0.0317 -0.0977,-0.0332 z"
       transform="scale(0.26458333)" />
  </g>
</svg>
