<?xml version="1.0" encoding="UTF-8"?>
<svg width="75.709mm" height="82.023mm" version="1.1" viewBox="0 0 75.709 82.023" xmlns="http://www.w3.org/2000/svg">
 <g transform="translate(-66.72 -107.21)">
  <path transform="scale(.26458)" d="m411.08 405.2c-0.77671 0.013-1.6295 0.0623-2.5644 0.14257-4.2541 0.36514-8.1628 1.6248-13.5 4.3496-5.8167 2.9697-8.1888 3.6898-10.512 3.1914-1.65-0.35407-4.7928-0.69671-6.9844-0.76172-3.6965-0.10976-4.4558 0.38464-10.5 6.8398-6.9666 7.4403-10.522 9.4395-25.713 14.461-9.9701 3.2956-13.303 5.6907-13.303 9.5625 0 3.4148 5.6195 10.845 12.387 16.379 4.3448 3.5529 4.598 3.998 3.168 5.5781-5.916 6.5371 5.6754 8.1385 19.672 2.7168 3.6995-1.433 11.126-3.2643 16.504-4.0684 5.3775-0.80406 10.522-1.748 11.434-2.0977 1.4867-0.57048 1.5994 0.21263 1.0918 7.6192-0.4969 7.2491-0.87873 8.5215-3.1289 10.457-2.1348 1.8362-2.3517 2.4594-1.2969 3.7305 0.85436 1.0292 0.92616 1.7366 0.21875 2.1738-1.6123 0.99648-1.2458 3.6657 0.69922 5.0879 0.96151 0.70315 1.5134 1.514 1.2246 1.8027-0.28876 0.28875-5.4646 1.0204-11.5 1.627-39.584 3.9777-71.86 18.24-96.041 42.438-22.076 22.091-31.528 45.021-30.125 73.074 0.67041 13.402 2.5923 21.187 8.1777 33.123 6.0146 12.853 11.446 20.509 21.92 30.895 11.844 11.744 20.73 17.941 32.518 22.676 5.2682 2.116 12.728 5.4016 16.578 7.3027 11.682 5.7686 32.2 10.3 51.5 11.373 25.956 1.443 50.764-1.8241 72.299-9.5215 9.3282-3.3343 28.128-12.915 32.102-16.359 1.705-1.478 4.3176-2.9832 5.8066-3.3457 3.4686-0.84401 19.338-15.922 25.811-24.523 17.321-23.018 23.426-52.277 16.508-79.119-2.2422-8.7006-9.2612-23.37-15.092-31.541-11.063-15.503-29.352-30.464-48.934-40.029-19.048-9.3042-38.047-14.424-62.5-16.842-7.425-0.73421-12.086-1.3914-10.357-1.4609 3.2858-0.1322 4.7354-1.898 3.3711-4.1055-0.47357-0.76773-1.8674-1.0913-3.4082-0.79687-1.4335 0.27398-2.6055 0.1403-2.6055-0.29688 0-0.43721 1.2375-0.93747 2.75-1.1113 1.9779-0.22761 2.75-0.87796 2.75-2.3164 0-1.7055-0.58864-1.9652-4-1.7656-2.6326 0.15397-3.5229-0.0687-2.6035-0.6504 0.98933-0.62596 1.4525-3.3459 1.584-9.3105 0.10227-4.6343 0.50602-8.9424 0.89648-9.5742 1.1601-1.8771 9.429-0.19961 17.094 3.4668 3.8345 1.8342 7.475 3.334 8.0879 3.334 0.61285 0 3.9172 2.25 7.3438 5 3.4266 2.75 6.9233 5 7.7715 5 1.1529 0 1.3821 0.64301 0.90429 2.5469-1.2907 5.1428 9.8075 11.868 13.934 8.4434 2.1148-1.7552 1.852-3.8249-0.95117-7.5l-2.4395-3.1992 5.6895-1.2559c6.9683-1.5394 8.4887-2.6055 7.1894-5.0332-0.8095-1.5126-0.44569-1.8836 2.3613-2.4102 5.2078-0.97697 8.5296-5.4683 12.082-16.338 2.601-7.9583 1.292-10.632-11.715-23.943-6.2374-6.3832-12.533-13.929-14.613-17.514-2.882-4.9659-4.227-6.3642-6.3574-6.6113-2.3123-0.26846-3.2028 0.47138-6.1797 5.125-3.8122 5.9594-4.9625 6.6965-10.41 6.6738-5.9158-0.0238-8.3928-1.8529-8.6543-6.3926-0.27816-4.8269-2.0005-6.4854-7.4375-6.3945zm0.39258 3.8027c2.2352 0 2.5312 0.41776 2.5312 3.5664 0 1.9612 0.46025 4.4262 1.0234 5.4785 1.3497 2.5218 11.076 5.3476 15.531 4.5117 4.2071-0.78928 8.7834-4.5432 10.453-8.5742 0.69665-1.6819 1.7667-2.899 2.3789-2.7051 0.61221 0.19412 2.4397 2.7983 4.0606 5.7871 1.6885 3.1137 7.5768 10.132 13.789 16.436 5.9631 6.0503 11.112 12.071 11.443 13.381 0.6991 2.7637-1.7656 11.167-4.6543 15.869-1.6131 2.6256-2.6413 3.25-5.3555 3.25-3.7593 0-7.2654 3.0084-6.334 5.4356 0.42168 1.0989-0.42841 1.7673-3.127 2.4551-10.731 2.7351-13.738 2.1454-21.561-4.2266-3.1499-2.5656-6.2832-4.6641-6.9648-4.6641s-4.4854-1.5556-8.4531-3.457c-9.1525-4.3861-18.091-5.7095-27.148-4.0176-3.6198 0.67616-9.2614 1.5535-12.535 1.9492-3.2738 0.39572-9.5738 2.0644-14 3.707-4.4262 1.6427-9.2281 3.2168-10.672 3.498-2.302 0.4484-2.625 0.18345-2.625-2.1426 0-1.9835-2.175-4.8735-8.625-11.465-4.7438-4.8477-8.625-9.3068-8.625-9.9082 0-1.5158 2.1383-2.5325 14.914-7.0898 14.3-5.1009 18.247-7.378 22.109-12.756 4.9451-6.886 6.6918-7.6709 13.904-6.252 5.8479 1.1505 6.2288 1.0972 10-1.3984 4.4734-2.9604 14.781-6.668 18.541-6.668zm32.689 72.504c0.45732-0.0726 1.0505 0.27969 1.9414 1.0859 1.0454 0.94606 1.9004 2.0997 1.9004 2.5645 0 1.2326-1.357 1.0365-3.4609-0.50196-1.0805-0.78867-1.5317-1.8546-1.0918-2.5664 0.21149-0.34222 0.43654-0.53851 0.71093-0.58203zm-49.33 17.65c28.062-0.20356 51.561 5.044 74.672 16.6 37.526 18.763 60.925 49.8 63.137 83.746 1.7339 26.616-8.599 50.759-30.861 72.113-19.679 18.875-44.992 31.054-76.885 36.992-9.7787 1.8208-40.148 2.6677-50.244 1.4004-41.528-5.2126-78.302-24.702-98.865-52.395-28.633-38.56-23.446-85.438 13.277-119.98 25.388-23.883 59.763-37.057 100.1-38.359 1.9126-0.0618 3.803-0.0997 5.6738-0.11328zm-0.82812 27.453c-50.204-0.0127-59.493 0.64117-68.639 4.8281-11.789 5.397-21.177 18.004-23.51 31.568-1.4968 8.7042-1.5189 81.27-0.0273 89.873 2.8568 16.476 13.72 29.114 29.176 33.943 4.4996 1.4058 20.721 3.1682 38.5 4.1836 26.836 1.5326 76.419-0.96772 87.941-4.4356 16.147-4.8597 26.762-19.026 28.674-38.268 1.3188-13.27 1.272-68.408-0.0684-80.789-1.8737-17.308-8.982-28.406-22.463-35.068-10.809-5.3419-16.548-5.8208-69.584-5.8359zm2.168 4.3926c18.798-6e-4 24.786 0.29737 25.17 1.25 0.27723 0.68734 0.53932 0.8 0.58203 0.25 0.0485-0.62585 3.3534-0.81294 8.8301-0.5 7.7823 0.44462 9.2484 0.85017 13.25 3.6582 4.941 3.4672 12.934 11.342 11.512 11.342-0.49172 0-0.15317 0.5625 0.75195 1.25 4.1331 3.1394 10.927 22.064 13.129 36.574 0.50986 3.3594 0.38552 2.3861 0.4082 3.7363 8e-3 0.53314 9e-3 1.2718 0.0352 1.7793 0.10118 1.877 0.7778 6.1315 1.3262 26.549 0.68069 25.344 1.4779 33.527 4.2871 44.006l1.4453 5.3945-6.1973 6.1934c-8.3709 8.364-13.578 10.249-33.174 12.008-24.318 2.183-38.377 2.6584-36.143 1.2207 1.0343-0.66565 4.6343-3.2075 8-5.6484 3.3657-2.4409 9.9442-6.4581 14.619-8.9258 13.91-7.3423 16.983-10.584 16.994-17.936 8e-3 -5.1219-1.851-9.0632-5.875-12.449-1.5565-0.66907-2.9201-1.5738-4.5762-2.5293 5.6862-5.5072 9.3281-14.079 9.3281-23.674 0-16.529-10.8-30.029-24.256-30.029-13.455-4e-5 -24.258 13.5-24.258 30.029-1e-5 2.1644 0.18902 4.2742 0.54297 6.3106-5.0391-1.772-9.7076-1.705-16.156 0.25 0.31793-1.9431 0.48828-3.9673 0.48828-6.0508 0-7.2026-2.0004-13.733-5.2695-18.49-3.2692-4.7571-7.843-7.7598-12.926-7.7598-5.0827 0-9.6566 3.0027-12.926 7.7598-3.2692 4.7571-5.2715 11.288-5.2715 18.49 0 7.2025 2.0023 13.727 5.2715 18.484 1.4701 2.1392 3.2072 3.9138 5.1328 5.2285-1.283 0.4862-3.6225 1.7056-5.5312 2.9102-2.0686 2.446-4.2364 2.4112-6.3574 6.0234-2.4357 4.2439-1.1145 9.5165 3.6934 14.732 5.587 6.1359 8.5934 7.8685 18.139 16.279 4.699 4.4529 7.0311 7.2832 6 7.2812-5.501-0.01-32.26-3.075-34.596-3.9629-2.1019-0.79918-2.6189-1.4928-2.0859-2.7988 0.38968-0.95486 1.8932-4.8863 3.3418-8.7363l2.6348-7 0.53906-46.5c0.58511-50.387 0.44944-49.113 6.5078-61 2.9899-5.8664 9.346-13.195 10.711-12.352 0.60052 0.37115 0.78077 0.19418 0.41211-0.40235-0.93224-1.5084 4.8051-6.0614 11.848-9.4004l6-2.8438zm110.74 38.682c-3.0645 0.0487-6.1742 1.4301-8.2793 4.4356-3.3332 4.7588-0.81302 12.651 4.7578 14.902 3.1666 1.2794 5.3962 1.1434 8.6309-0.5293 3.6874-1.9068 4.9805-4.3171 4.9805-9.2871 0-5.9803-4.9823-9.6026-10.09-9.5215zm-0.13672 2.1055c8.357-0.23739 11.507 10.948 4.1543 14.75-1.556 0.80466-3.5604 1.4629-4.4551 1.4629-2.535 0-7.4727-5.5288-7.4727-8.3672 0-3.8154 3.8838-7.7353 7.7734-7.8457zm-91.158 13.73c12.783 0 23.252 12.938 23.252 29.031 0 9.4889-3.6461 17.871-9.2539 23.16-1.5557-0.84655-3.3918-1.7092-5.8828-2.4668l-7.7715-2.5684 1.959-2.0859c4.753-5.0634 5.152-18.07 0.71289-23.23-6.5972-7.6696-15.852 2.6143-14.287 15.875l0.55859 4.7305-3.7363-2.3594c-3.0223-1.8873-5.6569-3.3163-8.168-4.3184-0.41297-2.1608-0.63672-4.4142-0.63672-6.7363 0-16.093 10.471-29.031 23.254-29.031zm-57.578 4.2949c4.6889 0 8.9632 2.7631 12.098 7.3242 3.1345 4.5611 5.0938 10.905 5.0938 17.922 0 2.219-0.20884 4.3607-0.58008 6.4062-1.1166 0.36299-2.2681 0.76283-3.502 1.2324l-5.9375 2.8496-0.41992-5.7871c-0.69358-9.5892-5.9732-14.385-10.514-9.5508-2.2124 2.3555-4.3371 9.5043-3.7344 12.566 1.2082 6.1381 1.7242 7.4898 3.5664 9.332 1.9479 1.9479 1.9669 2.1556 0.34375 3.9492-0.76015 0.83997-2.018 1.7324-3.0918 2.248-2.0277-1.2597-3.8674-3.0681-5.4219-5.3301-3.1345-4.5611-5.0938-10.9-5.0938-17.916 0-7.0165 1.9593-13.361 5.0938-17.922 3.1345-4.5611 7.4107-7.3242 12.1-7.3242zm142.19 3.1875c-1.6299 0-5.2227 3.1804-5.2227 4.623 0 0.82994 0.46581 2.3795 1.0352 3.4434 1.9021 3.554 8.9648 1.4749 8.9648-2.6387 0-1.5058-3.4521-5.4277-4.7773-5.4277zm14.807 0.68555c-0.99122 2e-3 -2.02 0.32059-2.9648 0.98242-2.282 1.5984-2.7277 5.2704-0.86523 7.1328 3.4252 3.4252 10.176-1.3654 7.9043-5.6094-0.87428-1.6336-2.4222-2.509-4.0742-2.5059zm-0.28516 1.7031c0.44118 0.0255 0.90446 0.40251 1.6484 1.1465 1.2978 1.2978 1.4147 1.9917 0.51953 3.0703-0.63632 0.76671-1.7915 1.3945-2.5664 1.3945-2.1131 0-2.8261-2.9473-1.125-4.6484 0.66259-0.66249 1.0823-0.98844 1.5234-0.96289zm-14.963 0.29688c1.7076-0.0666 3.4018 1.6705 2.666 3.5918-0.82948 2.1571-4.3051 2.2557-5.1152 0.14454-0.33294-0.86763 0.0384-2.222 0.82617-3.0098 0.48259-0.48258 1.0537-0.70435 1.623-0.72656zm-115.72 27.857c6.2257-0.0409 7.037 0.24429 16 5.6172 6.1272 3.673 12.187 6.4002 17.264 7.7676 14.587 3.9288 19.678 7.9721 19.678 15.631 0 5.8307-2.8084 8.9045-13.133 14.377-4.6023 2.4394-12.508 7.2536-17.568 10.697-5.0603 3.4437-11.555 6.9601-14.432 7.8145-11.586 3.4406-19.452 0.90488-29.367-9.4629-2.2-2.3004-7.269-6.8713-11.264-10.158-13.557-11.155-13.636-16.578-0.33789-23.311 1.8694-0.94639 6.4999-4.6326 10.289-8.1914 8.6614-8.1347 14.154-10.724 22.871-10.781zm-10.125 7.457c-1.7098 0-4.9336 1.9834-4.9336 3.0352 0 1.0932 2.0658 1.26 4.418 0.35742 1.7665-0.67786 2.179-3.3926 0.51562-3.3926zm18.119 0.29492c-0.27454 0.0117-0.52664 0.0572-0.74414 0.14063-1.2385 0.47527-1.2957 0.87503-0.29882 2.0762 1.3654 1.6452 5.9902 2.0494 5.9902 0.52344 0-1.2799-3.0254-2.822-4.9473-2.7402zm35.521 17.01c-0.65787-0.0222-3.8067 2.1138-7.3106 4.9805-7.7306 6.3247-16.413 11.469-24.922 14.768-4.471 1.733-7.9936 2.2791-15.01 2.332-8.7763 0.0661-9.4997-0.10064-16.959-3.9082-5.8946-3.0089-8.775-5.2369-11.832-9.1523-2.2225-2.8466-4.3785-5.2092-4.791-5.25-3.5066-0.34779 5.5361 11.085 11.857 14.992 1.9359 1.1964 5.6274 2.9999 8.2051 4.0078 5.9138 2.3123 17.624 2.4826 25.727 0.375 7.5185-1.9558 18.987-8.1049 26.984-14.469 6.9553-5.5345 9.0429-7.7482 8.1484-8.6426-0.0211-0.0211-0.0538-0.0317-0.0977-0.0332z"/>
 </g>
</svg>
