<?xml version="1.0" encoding="UTF-8" standalone="no"?>
<svg
   xmlns:dc="http://purl.org/dc/elements/1.1/"
   xmlns:cc="http://creativecommons.org/ns#"
   xmlns:rdf="http://www.w3.org/1999/02/22-rdf-syntax-ns#"
   xmlns:svg="http://www.w3.org/2000/svg"
   xmlns="http://www.w3.org/2000/svg"
   xmlns:sodipodi="http://sodipodi.sourceforge.net/DTD/sodipodi-0.dtd"
   xmlns:inkscape="http://www.inkscape.org/namespaces/inkscape"
   width="75.709mm"
   height="82.023mm"
   version="1.1"
   viewBox="0 0 75.709 82.023"
   id="svg837"
   sodipodi:docname="nz-inkscape.svg"
   inkscape:version="1.0.1 (3bc2e813f5, 2020-09-07)"
   inkscape:export-filename="C:\Users\games\Documents\pycon\pyconline-schedule-slide\dvd\logo-nz.png"
   inkscape:export-xdpi="96"
   inkscape:export-ydpi="96">
  <metadata
     id="metadata843">
    <rdf:RDF>
      <cc:Work
         rdf:about="">
        <dc:format>image/svg+xml</dc:format>
        <dc:type
           rdf:resource="http://purl.org/dc/dcmitype/StillImage" />
        <dc:title></dc:title>
      </cc:Work>
    </rdf:RDF>
  </metadata>
  <defs
     id="defs841" />
  <sodipodi:namedview
     pagecolor="#ffffff"
     bordercolor="#666666"
     borderopacity="1"
     objecttolerance="10"
     gridtolerance="10"
     guidetolerance="10"
     inkscape:pageopacity="0"
     inkscape:pageshadow="2"
     inkscape:window-width="2063"
     inkscape:window-height="1892"
     id="namedview839"
     showgrid="false"
     inkscape:zoom="3.2515269"
     inkscape:cx="147.49196"
     inkscape:cy="198.3509"
     inkscape:window-x="0"
     inkscape:window-y="0"
     inkscape:window-maximized="0"
     inkscape:current-layer="g835" />
  <g
     transform="translate(-66.72 -107.21)"
     id="g835">
    <path
       style="fill:none;stroke:#000000;stroke-width:1;stroke-linecap:butt;stroke-linejoin:miter;stroke-miterlimit:4;stroke-dasharray:none;stroke-opacity:1"
       d="m 104.0028,124.74357 c 0,0 -0.332,-0.498 -0.71142,-0.664 -0.37942,-0.16599 -1.32798,0.26085 -1.49397,0.0237 -0.166,-0.23714 -0.28456,-0.3557 -0.21343,-0.64027 0.0711,-0.28456 0.75885,-1.58883 1.04342,-1.77853 0.28456,-0.18972 1.39912,-1.39912 1.99196,-1.54141 0.59285,-0.14228 1.80225,-1.13826 1.92081,-1.54139 -0.10654,-0.56395 0.3398,-1.17504 0.88927,-1.3517 0.332,-0.33199 -0.0356,-1.30425 0.55728,-1.32796 0.30269,-0.009 0.42371,0.59715 0.68843,0.74876 0.16694,0.0956 0.46959,-0.26821 0.66326,-0.20334 0.28795,0.0965 0.87741,1.2094 0.97226,1.2094 0.0949,0 0.99599,0.0474 1.18569,-0.21343 0.18972,-0.26085 1.25684,-1.65997 1.35169,-1.99196 0.0949,-0.33199 -0.11856,-1.23312 0.23714,-1.23312 0.35571,0 0.64027,0.28457 0.78255,-0.0475 0.14229,-0.33199 1.0197,-1.99195 0.664,-2.18167 -0.35571,-0.18971 -0.80628,-0.37942 -1.09084,-0.18971 -0.28457,0.18971 -0.61656,0.68771 -0.99598,0.47428 -0.37943,-0.21343 -1.03566,-2.1755 -1.43468,-1.93267 -0.61904,0.37669 -0.77758,-0.32742 -0.74699,-1.05527 0.0152,-0.36137 -1.40087,-0.95569 -1.56511,-1.22127 -0.17542,-0.21744 -0.60314,-0.47619 -0.72171,-0.33393 -0.11857,0.14229 0.0815,0.60663 0.27114,0.82005 0.18971,0.21342 0.0474,0.59284 0.18971,0.71142 0.14228,0.11856 1.36355,1.88525 1.38726,2.1461 0.0238,0.26084 0.39128,0.82997 0.24899,1.11454 -0.14228,0.28457 0,0.91299 -0.30828,1.07899 -0.30828,0.16599 -0.53355,0.14227 -0.67583,0.45055 -0.14229,0.30828 -0.10667,0.42686 0.0237,0.64027 0.13043,0.21343 0.88926,0.43871 1.13827,0.72328 0.24899,0.28456 0.22528,0.29642 0.18971,0.53356 -0.0356,0.23713 -0.42685,0.67585 -0.42685,1.12641 0,0.45056 0.11856,0.8537 -0.0949,1.06712 -0.21342,0.21343 -0.79441,1.10269 -0.99598,1.28054 -0.20157,0.17786 -0.48613,0.332 -0.415,0.56914 0.0711,0.23714 0.15415,0.0949 0.22528,0.22528 0.0711,0.13042 0.26086,0.46241 -0.0592,0.6047 -0.32013,0.14228 -0.53356,-0.10666 -0.90113,0.0711 -0.36755,0.17785 -0.7707,0.36757 -0.85369,0.6877 -0.083,0.32014 -0.40314,0.84183 -0.45056,1.1264 -0.0474,0.28457 -0.15414,0.65213 -0.11858,0.747 0.0356,0.0949 -0.0119,0.23713 -0.34384,0.40313 -0.33199,0.166 -0.50986,0.58098 -0.66399,0.71141 -0.15414,0.13042 -0.7707,0.28456 -0.97227,0.249 -0.20156,-0.0356 0,0 0,0 z"
       id="path859"
       sodipodi:nodetypes="cscccscccsssccssccssscccccssscscscscccccccccscc" />
    <path
       transform="scale(0.26458)"
       d="m 392.26,469.11215 c -0.4969,7.2491 -0.87873,8.5215 -3.1289,10.457 -2.1348,1.8362 -2.3517,2.4594 -1.2969,3.7305 0.85436,1.0292 0.92616,1.7366 0.21875,2.1738 -1.6123,0.99648 -1.2458,3.6657 0.69922,5.0879 0.96151,0.70315 1.5134,1.514 1.2246,1.8027 -0.28876,0.28875 -5.4646,1.0204 -11.5,1.627 -39.584,3.9777 -71.86,18.24 -96.041,42.438 -22.076,22.091 -31.528,45.021 -30.125,73.074 0.67041,13.402 2.5923,21.187 8.1777,33.123 6.0146,12.853 11.446,20.509 21.92,30.895 11.844,11.744 20.73,17.941 32.518,22.676 5.2682,2.116 12.728,5.4016 16.578,7.3027 11.682,5.7686 32.2,10.3 51.5,11.373 25.956,1.443 50.764,-1.8241 72.299,-9.5215 9.3282,-3.3343 28.128,-12.915 32.102,-16.359 1.705,-1.478 4.3176,-2.9832 5.8066,-3.3457 3.4686,-0.84401 19.338,-15.922 25.811,-24.523 17.321,-23.018 23.426,-52.277 16.508,-79.119 -2.2422,-8.7006 -9.2612,-23.37 -15.092,-31.541 -11.063,-15.503 -29.352,-30.464 -48.934,-40.029 -19.048,-9.3042 -38.047,-14.424 -62.5,-16.842 -7.425,-0.73421 -12.086,-1.3914 -10.357,-1.4609 3.2858,-0.1322 4.7354,-1.898 3.3711,-4.1055 -0.47357,-0.76773 -1.8674,-1.0913 -3.4082,-0.79687 -1.4335,0.27398 -2.6055,0.1403 -2.6055,-0.29688 0,-0.43721 1.2375,-0.93747 2.75,-1.1113 1.9779,-0.22761 2.75,-0.87796 2.75,-2.3164 0,-1.7055 -0.58864,-1.9652 -4,-1.7656 -2.6326,0.15397 -3.5229,-0.0687 -2.6035,-0.6504 0.98933,-0.62596 1.4525,-3.3459 1.584,-9.3105 z m 2.57158,30.04455 c 28.062,-0.20356 51.561,5.044 74.672,16.6 37.526,18.763 60.925,49.8 63.137,83.746 1.7339,26.616 -8.599,50.759 -30.861,72.113 -19.679,18.875 -44.992,31.054 -76.885,36.992 -9.7787,1.8208 -40.148,2.6677 -50.244,1.4004 -41.528,-5.2126 -78.302,-24.702 -98.865,-52.395 -28.633,-38.56 -23.446,-85.438 13.277,-119.98 25.388,-23.883 59.763,-37.057 100.1,-38.359 1.9126,-0.0618 3.803,-0.0997 5.6738,-0.11328 z m -0.82812,27.453 c -50.204,-0.0127 -59.493,0.64117 -68.639,4.8281 -11.789,5.397 -21.177,18.004 -23.51,31.568 -1.4968,8.7042 -1.5189,81.27 -0.0273,89.873 2.8568,16.476 13.72,29.114 29.176,33.943 4.4996,1.4058 20.721,3.1682 38.5,4.1836 26.836,1.5326 76.419,-0.96772 87.941,-4.4356 16.147,-4.8597 26.762,-19.026 28.674,-38.268 1.3188,-13.27 1.272,-68.408 -0.0684,-80.789 -1.8737,-17.308 -8.982,-28.406 -22.463,-35.068 -10.809,-5.3419 -16.548,-5.8208 -69.584,-5.8359 z m 2.168,4.3926 c 18.798,-6e-4 24.786,0.29737 25.17,1.25 0.27723,0.68734 0.53932,0.8 0.58203,0.25 0.0485,-0.62585 3.3534,-0.81294 8.8301,-0.5 7.7823,0.44462 9.2484,0.85017 13.25,3.6582 4.941,3.4672 12.934,11.342 11.512,11.342 -0.49172,0 -0.15317,0.5625 0.75195,1.25 4.1331,3.1394 10.927,22.064 13.129,36.574 0.50986,3.3594 0.38552,2.3861 0.4082,3.7363 0.008,0.53314 0.009,1.2718 0.0352,1.7793 0.10118,1.877 0.7778,6.1315 1.3262,26.549 0.68069,25.344 1.4779,33.527 4.2871,44.006 l 1.4453,5.3945 -6.1973,6.1934 c -8.3709,8.364 -13.578,10.249 -33.174,12.008 -24.318,2.183 -38.377,2.6584 -36.143,1.2207 1.0343,-0.66565 4.6343,-3.2075 8,-5.6484 3.3657,-2.4409 9.9442,-6.4581 14.619,-8.9258 13.91,-7.3423 16.983,-10.584 16.994,-17.936 0.008,-5.1219 -1.851,-9.0632 -5.875,-12.449 -1.5565,-0.66907 -2.9201,-1.5738 -4.5762,-2.5293 5.6862,-5.5072 9.3281,-14.079 9.3281,-23.674 0,-16.529 -10.8,-30.029 -24.256,-30.029 -13.455,-4e-5 -24.258,13.5 -24.258,30.029 -10e-6,2.1644 0.18902,4.2742 0.54297,6.3106 -5.0391,-1.772 -9.7076,-1.705 -16.156,0.25 0.31793,-1.9431 0.48828,-3.9673 0.48828,-6.0508 0,-7.2026 -2.0004,-13.733 -5.2695,-18.49 -3.2692,-4.7571 -7.843,-7.7598 -12.926,-7.7598 -5.0827,0 -9.6566,3.0027 -12.926,7.7598 -3.2692,4.7571 -5.2715,11.288 -5.2715,18.49 0,7.2025 2.0023,13.727 5.2715,18.484 1.4701,2.1392 3.2072,3.9138 5.1328,5.2285 -1.283,0.4862 -3.6225,1.7056 -5.5312,2.9102 -2.0686,2.446 -4.2364,2.4112 -6.3574,6.0234 -2.4357,4.2439 -1.1145,9.5165 3.6934,14.732 5.587,6.1359 8.5934,7.8685 18.139,16.279 4.699,4.4529 7.0311,7.2832 6,7.2812 -5.501,-0.01 -32.26,-3.075 -34.596,-3.9629 -2.1019,-0.79918 -2.6189,-1.4928 -2.0859,-2.7988 0.38968,-0.95486 1.8932,-4.8863 3.3418,-8.7363 l 2.6348,-7 0.53906,-46.5 c 0.58511,-50.387 0.44944,-49.113 6.5078,-61 2.9899,-5.8664 9.346,-13.195 10.711,-12.352 0.60052,0.37115 0.78077,0.19418 0.41211,-0.40235 -0.93224,-1.5084 4.8051,-6.0614 11.848,-9.4004 l 6,-2.8438 z m 110.74,38.682 c -3.0645,0.0487 -6.1742,1.4301 -8.2793,4.4356 -3.3332,4.7588 -0.81302,12.651 4.7578,14.902 3.1666,1.2794 5.3962,1.1434 8.6309,-0.5293 3.6874,-1.9068 4.9805,-4.3171 4.9805,-9.2871 0,-5.9803 -4.9823,-9.6026 -10.09,-9.5215 z m -0.13672,2.1055 c 8.357,-0.23739 11.507,10.948 4.1543,14.75 -1.556,0.80466 -3.5604,1.4629 -4.4551,1.4629 -2.535,0 -7.4727,-5.5288 -7.4727,-8.3672 0,-3.8154 3.8838,-7.7353 7.7734,-7.8457 z m -91.158,13.73 c 12.783,0 23.252,12.938 23.252,29.031 0,9.4889 -3.6461,17.871 -9.2539,23.16 -1.5557,-0.84655 -3.3918,-1.7092 -5.8828,-2.4668 l -7.7715,-2.5684 1.959,-2.0859 c 4.753,-5.0634 5.152,-18.07 0.71289,-23.23 -6.5972,-7.6696 -15.852,2.6143 -14.287,15.875 l 0.55859,4.7305 -3.7363,-2.3594 c -3.0223,-1.8873 -5.6569,-3.3163 -8.168,-4.3184 -0.41297,-2.1608 -0.63672,-4.4142 -0.63672,-6.7363 0,-16.093 10.471,-29.031 23.254,-29.031 z m -57.578,4.2949 c 4.6889,0 8.9632,2.7631 12.098,7.3242 3.1345,4.5611 5.0938,10.905 5.0938,17.922 0,2.219 -0.20884,4.3607 -0.58008,6.4062 -1.1166,0.36299 -2.2681,0.76283 -3.502,1.2324 l -5.9375,2.8496 -0.41992,-5.7871 c -0.69358,-9.5892 -5.9732,-14.385 -10.514,-9.5508 -2.2124,2.3555 -4.3371,9.5043 -3.7344,12.566 1.2082,6.1381 1.7242,7.4898 3.5664,9.332 1.9479,1.9479 1.9669,2.1556 0.34375,3.9492 -0.76015,0.83997 -2.018,1.7324 -3.0918,2.248 -2.0277,-1.2597 -3.8674,-3.0681 -5.4219,-5.3301 -3.1345,-4.5611 -5.0938,-10.9 -5.0938,-17.916 0,-7.0165 1.9593,-13.361 5.0938,-17.922 3.1345,-4.5611 7.4107,-7.3242 12.1,-7.3242 z m 142.19,3.1875 c -1.6299,0 -5.2227,3.1804 -5.2227,4.623 0,0.82994 0.46581,2.3795 1.0352,3.4434 1.9021,3.554 8.9648,1.4749 8.9648,-2.6387 0,-1.5058 -3.4521,-5.4277 -4.7773,-5.4277 z m 14.807,0.68555 c -0.99122,0.002 -2.02,0.32059 -2.9648,0.98242 -2.282,1.5984 -2.7277,5.2704 -0.86523,7.1328 3.4252,3.4252 10.176,-1.3654 7.9043,-5.6094 -0.87428,-1.6336 -2.4222,-2.509 -4.0742,-2.5059 z m -0.28516,1.7031 c 0.44118,0.0255 0.90446,0.40251 1.6484,1.1465 1.2978,1.2978 1.4147,1.9917 0.51953,3.0703 -0.63632,0.76671 -1.7915,1.3945 -2.5664,1.3945 -2.1131,0 -2.8261,-2.9473 -1.125,-4.6484 0.66259,-0.66249 1.0823,-0.98844 1.5234,-0.96289 z m -14.963,0.29688 c 1.7076,-0.0666 3.4018,1.6705 2.666,3.5918 -0.82948,2.1571 -4.3051,2.2557 -5.1152,0.14454 -0.33294,-0.86763 0.0384,-2.222 0.82617,-3.0098 0.48259,-0.48258 1.0537,-0.70435 1.623,-0.72656 z m -115.72,27.857 c 6.2257,-0.0409 7.037,0.24429 16,5.6172 6.1272,3.673 12.187,6.4002 17.264,7.7676 14.587,3.9288 19.678,7.9721 19.678,15.631 0,5.8307 -2.8084,8.9045 -13.133,14.377 -4.6023,2.4394 -12.508,7.2536 -17.568,10.697 -5.0603,3.4437 -11.555,6.9601 -14.432,7.8145 -11.586,3.4406 -19.452,0.90488 -29.367,-9.4629 -2.2,-2.3004 -7.269,-6.8713 -11.264,-10.158 -13.557,-11.155 -13.636,-16.578 -0.33789,-23.311 1.8694,-0.94639 6.4999,-4.6326 10.289,-8.1914 8.6614,-8.1347 14.154,-10.724 22.871,-10.781 z m -10.125,7.457 c -1.7098,0 -4.9336,1.9834 -4.9336,3.0352 0,1.0932 2.0658,1.26 4.418,0.35742 1.7665,-0.67786 2.179,-3.3926 0.51562,-3.3926 z m 18.119,0.29492 c -0.27454,0.0117 -0.52664,0.0572 -0.74414,0.14063 -1.2385,0.47527 -1.2957,0.87503 -0.29882,2.0762 1.3654,1.6452 5.9902,2.0494 5.9902,0.52344 0,-1.2799 -3.0254,-2.822 -4.9473,-2.7402 z m 35.521,17.01 c -0.65787,-0.0222 -3.8067,2.1138 -7.3106,4.9805 -7.7306,6.3247 -16.413,11.469 -24.922,14.768 -4.471,1.733 -7.9936,2.2791 -15.01,2.332 -8.7763,0.0661 -9.4997,-0.10064 -16.959,-3.9082 -5.8946,-3.0089 -8.775,-5.2369 -11.832,-9.1523 -2.2225,-2.8466 -4.3785,-5.2092 -4.791,-5.25 -3.5066,-0.34779 5.5361,11.085 11.857,14.992 1.9359,1.1964 5.6274,2.9999 8.2051,4.0078 5.9138,2.3123 17.624,2.4826 25.727,0.375 7.5185,-1.9558 18.987,-8.1049 26.984,-14.469 6.9553,-5.5345 9.0429,-7.7482 8.1484,-8.6426 -0.0211,-0.0211 -0.0538,-0.0317 -0.0977,-0.0332 z"
       id="path833"
       sodipodi:nodetypes="cccscccccccccsscccccsscccscscscccccccccccccccccscccccccccccssssccsccccssccccsssccssscsscccccccscccscsccccscssccsssssscscccccccccsccccsccccccsscsscccsssssccccccsssscssscsssscssssccscccccsssssccsscccsccssccsccscc" />
  </g>
</svg>
