<?xml version="1.0" encoding="UTF-8" standalone="no"?>
<svg
   xmlns:dc="http://purl.org/dc/elements/1.1/"
   xmlns:cc="http://creativecommons.org/ns#"
   xmlns:rdf="http://www.w3.org/1999/02/22-rdf-syntax-ns#"
   xmlns:svg="http://www.w3.org/2000/svg"
   xmlns="http://www.w3.org/2000/svg"
   xmlns:sodipodi="http://sodipodi.sourceforge.net/DTD/sodipodi-0.dtd"
   xmlns:inkscape="http://www.inkscape.org/namespaces/inkscape"
   width="75.709mm"
   height="82.023mm"
   version="1.1"
   viewBox="0 0 75.709 82.023"
   id="svg861"
   sodipodi:docname="nz-inkscape.svg"
   inkscape:version="1.0.1 (3bc2e813f5, 2020-09-07)">
  <metadata
     id="metadata867">
    <rdf:RDF>
      <cc:Work
         rdf:about="">
        <dc:format>image/svg+xml</dc:format>
        <dc:type
           rdf:resource="http://purl.org/dc/dcmitype/StillImage" />
        <dc:title></dc:title>
      </cc:Work>
    </rdf:RDF>
  </metadata>
  <defs
     id="defs865" />
  <sodipodi:namedview
     pagecolor="#ffffff"
     bordercolor="#666666"
     borderopacity="1"
     objecttolerance="10"
     gridtolerance="10"
     guidetolerance="10"
     inkscape:pageopacity="0"
     inkscape:pageshadow="2"
     inkscape:window-width="1594"
     inkscape:window-height="1502"
     id="namedview863"
     showgrid="false"
     inkscape:zoom="3.2515269"
     inkscape:cx="143.07213"
     inkscape:cy="155.0041"
     inkscape:window-x="0"
     inkscape:window-y="0"
     inkscape:window-maximized="0"
     inkscape:current-layer="svg861" />
  <g
     transform="translate(-66.72 -107.21)"
     id="g859">
    <path
       id="path857"
       style="font-variant-ligatures:normal;font-variant-position:normal;font-variant-caps:normal;font-variant-numeric:normal;font-variant-alternates:normal;font-variant-east-asian:normal;font-feature-settings:normal;font-variation-settings:normal;text-indent:0;text-decoration:none;text-decoration-line:none;text-decoration-style:solid;text-decoration-color:#000000;text-transform:none;text-orientation:mixed;white-space:normal;shape-padding:0;shape-margin:0;inline-size:0;isolation:auto;mix-blend-mode:normal"
       transform="matrix(0.26458,0,0,0.26458,66.72,107.21)"
       d="m 156.2,0.0097656 c -0.55087,0.033128 -1.2311,0.23524 -1.7188,0.82031 -0.60295,0.72355 -0.59925,1.4441 -0.56054,1.957 0.0387,0.51296 0.1631,0.93956 0.3164,1.3574 0.30663,0.83577 0.71541,1.5866 1.3066,2.252 -0.16683,-0.18765 -0.0651,-0.15498 -0.0449,0.31055 0.0101,0.23274 8.6e-4,0.52809 0.0742,0.95117 0.0733,0.42304 0.25833,1.0965 0.89258,1.625 -0.30868,-0.25723 -0.0569,-0.051109 0.0976,0.14648 0.15455,0.19759 0.3734,0.48853 0.61914,0.8281204 0.49153,0.67918 1.1099,1.5682 1.7129,2.4727 0.60299,0.90452 1.1935,1.8263 1.6172,2.5469 0.21188,0.3603 0.37776,0.67867 0.47852,0.88476 0.10076,0.20606 0.0912,0.45847 0.0449,-0.05078 0.11365,1.2455 0.5609,1.8656 0.8125,2.5527 0.25157,0.68712 0.0767,1.1376 0.32422,0.64258 -0.63039,1.2608 -0.47322,2.1956 -0.53906,2.873 -0.0254,0.2612 -0.0617,0.3868 -0.0879,0.49414 -0.32323,0.14449 -0.63476,0.24657 -1.1738,0.50195 -0.65371,0.30962 -1.5136,1.0268 -1.9492,1.9707 -0.33268,0.72076 -0.57379,1.462 -0.50977,2.2812 0.064,0.81925 0.41355,1.4413 0.70118,1.9121 0.47123,0.77114 0.94675,0.9862 1.3965,1.2539 0.44975,0.2677 0.91212,0.49414 1.3574,0.7168 0.89065,0.44534 1.7354,1.0176 1.7422,1.0254 0.16582,0.18952 0.22503,0.27834 0.28906,0.36523 -0.006,0.0531 -0.002,0.03531 -0.0156,0.12305 0.0568,-0.37867 -0.23737,0.40236 -0.65039,1.2031 -0.27659,-0.29084 -0.40576,-0.61326 -1.0469,-0.82812 -0.82798,-0.27734 -1.4978,-0.06679 -1.9199,0.10352 -0.25225,0.10182 -0.3845,0.19817 -0.55469,0.29492 -0.13198,-0.17926 -0.0654,-0.11413 -0.26562,-0.44922 -0.21476,-0.35947 -0.45775,-0.77701 -0.89258,-1.2109 -0.43484,-0.43396 -1.2132,-0.92775 -2.1328,-0.90039 h -0.0156 -0.008 c -1.0833,0.04331 -2.2352,0.8011 -2.6856,1.6309 -0.45037,0.82972 -0.49566,1.5568 -0.54687,2.1777 -0.0512,0.62098 -0.0635,1.1607 -0.11719,1.5059 -0.01,0.06399 -0.0181,0.0709 -0.0293,0.11524 -2.381,1.0928 -4.1202,3.4666 -3.957,6.1855 -0.10292,0.15469 -0.25205,0.37535 -0.45898,0.60156 -0.44058,0.48159 -1.0636,1.0672 -1.7422,1.6172 -1.3571,1.1001 -3.1257,2.0665 -3.5566,2.1699 -2.0405,0.48975 -3.4915,1.9217 -5.0137,3.2695 -0.76109,0.67396 -1.4646,1.3452 -2.0371,1.875 -0.57253,0.52978 -1.1124,0.96425 -1.084,0.94531 -0.80817,0.53873 -1.0882,1.0531 -1.5371,1.7051 -0.44885,0.65201 -0.90669,1.4056 -1.3359,2.1699 -0.42921,0.76433 -0.83046,1.5371 -1.1504,2.207 -0.31997,0.66996 -0.54262,1.1232 -0.70117,1.7578 -0.20931,0.83728 -0.13096,1.8064 0.16993,2.4941 0.30088,0.68776 0.64453,1.0745 0.92187,1.4707 0.39723,0.5675 0.98325,0.84933 1.4238,0.9668 0.44062,0.1175 0.79629,0.1209 1.1309,0.10938 0.66916,-0.02305 1.2668,-0.14217 1.8516,-0.25 1.1695,-0.21574 2.3889,-0.11693 2.0312,-0.27344 0.26668,0.11667 0.83183,0.57929 1.2324,1.0254 0.40056,0.4461 0.63477,0.80469 0.63477,0.80469 l 0.40625,0.59766 h 0.002 c -0.4228,3.8036 -1.0415,4.9418 -2.7871,6.4434 -2.1348,1.8362 -2.3517,2.4594 -1.2969,3.7305 0.85435,1.0292 0.92615,1.7366 0.21875,2.1738 -1.6123,0.99647 -1.2458,3.6657 0.69921,5.0879 0.9615,0.70314 1.5134,1.514 1.2246,1.8027 2.69944,1.036107 5.78526,-0.05356 8.6713,-0.2304 3.2858,-0.1322 4.7354,-1.898 3.3711,-4.1055 -0.47356,-0.76772 -1.8674,-1.0913 -3.4082,-0.79688 -1.4335,0.27398 -2.6055,0.1403 -2.6055,-0.29688 0,-0.4372 1.2375,-0.9375 2.75,-1.1113 1.9779,-0.22761 2.75,-0.87798 2.75,-2.3164 0,-1.7055 -0.58868,-1.9652 -4,-1.7656 -2.6326,0.15397 -3.5229,-0.0687 -2.6035,-0.65039 0.87685,-0.55479 1.3242,-2.8991 1.5098,-7.5449 0.14288,-0.0377 0.28506,-0.07656 0.4375,-0.11523 0.87915,-0.22311 1.5639,-0.27992 2.5234,-1.0918 0.77204,-0.65333 0.96025,-1.1564 1.293,-1.6016 0.33275,-0.44523 0.6551,-0.74943 0.83985,-0.8418 0.78814,-0.39417 1.395,-0.79749 1.8613,-1.4473 0.46628,-0.64981 0.63474,-1.6989 0.36132,-2.4277 0.0895,0.23874 0.0982,0.32073 0.10352,0.38476 0.0132,-0.09981 0.0434,-0.26812 0.0879,-0.48828 0.0969,-0.47906 0.24979,-1.1077 0.35547,-1.7422 0.007,-0.04233 0.28934,-0.82 0.64844,-1.5879 0.35905,-0.76785 0.77711,-1.5748 1.0195,-2.5098 -0.007,0.0268 0.0516,-0.14472 0.45703,-0.42773 0.40539,-0.28301 1.0566,-0.60599 1.7578,-0.94531 0.25433,-0.12299 0.16874,-0.09025 0.64844,-0.01367 0.4797,0.07653 1.582,0.26978 2.7031,-0.22852 0.61505,-0.27341 1.2038,-0.7831 1.5117,-1.4102 0.30788,-0.62706 0.3264,-1.2584 0.25977,-1.7363 -0.13323,-0.95584 -0.53949,-1.5537 -0.6582,-1.7715 -0.0458,-0.08394 -0.17106,-0.13426 -0.23633,-0.2207 0.1892,-0.15198 0.28488,-0.22588 0.54687,-0.45703 0.87716,-0.77397 1.4003,-1.6444 2.1484,-2.6738 0.74812,-1.0294 1.6234,-2.1683 1.7051,-2.25 0.40021,-0.4001 0.2821,-0.83331 0.43555,-1.2852 0.17582,0.0087 0.97424,0.04154 1.9629,-0.03711 0.5687,-0.04528 1.1739,-0.11721 1.7949,-0.29492 0.62097,-0.17771 1.3412,-0.40404 1.9551,-1.248 0.31252,-0.42969 1.5396,-2.0445 2.7031,-3.6758 0.58178,-0.81566 1.1535,-1.6428 1.623,-2.377 0.4695,-0.7342 0.81992,-1.1899 1.0703,-2.0664 0.37281,-1.3041 0.16769,-2.218 0.14063,-3.0273 0.14331,0.03685 0.12553,0.03314 0.31054,0.07422 0.40838,0.09075 1.0274,0.19421 1.7637,-0.08789 0.73626,-0.28214 1.3017,-0.95908 1.5645,-1.5723 0.1641,-0.38287 1.1961,-2.4405 1.9707,-4.3711 0.38729,-0.96525 0.73397,-1.9152 0.9082,-2.8633 0.0872,-0.47407 0.14971,-0.94952 0.0606,-1.5352 -0.0892,-0.58568 -0.46214,-1.4558 -1.2773,-1.8906 -0.73376,-0.39133 -1.6006,-0.8166 -2.5996,-1.0625 -0.99905,-0.24593 -2.2982,-0.33374 -3.4609,0.44141 -0.89057,0.59369 -1.4245,1.2267 -1.8164,1.5137 -0.0237,0.01738 -0.0258,0.01791 -0.0312,0.02148 -0.0273,-0.06994 -0.21586,-0.28827 -0.4707,-0.73047 -0.41635,-0.7225 -0.90834,-1.6855 -1.418,-2.6348 -0.50963,-0.94927 -1.0175,-1.8696 -1.6523,-2.6562 -0.31741,-0.39337 -0.655,-0.78011 -1.248,-1.1016 -0.52263,-0.2832804 -1.4513,-0.2657004 -2.1934,0.0293 -0.11694,-0.3883504 -0.28682,-1.2323004 -0.24219,-2.2949004 0.0335,-0.79706 -0.29013,-1.3513 -0.57617,-1.7422 -0.28607,-0.3908 -0.59962,-0.67583 -0.92383,-0.94531 -0.64849,-0.53889 -1.3782,-0.99997 -2.1094,-1.4453 -0.73119,-0.4453 -1.4609,-0.86681 -1.9941,-1.2051 -0.53322,-0.33823 -0.91559,-0.85979 -0.59766,-0.3457 l -0.0586,-0.10352 -0.0742,-0.087891 c -0.57279,-0.70998 -1.2554,-1.2295 -2.0527,-1.6406 -0.39862,-0.20557 -0.81483,-0.38352 -1.3867,-0.45703 -0.14296,-0.018378 -0.31247,-0.026668 -0.4961,-0.015625 z m -4.5391,61.1840004 c -0.001,0.0088 -0.007,0.03558 -0.008,0.04297 -0.006,0.05356 0.0153,0.04771 0.008,-0.04297 z m 7.4258,-55.1950004 c 0.58235,0.36113 1.2042,0.72847 1.8008,1.0918 0.67722,0.41242 1.3116,0.83112 1.6699,1.1289 0.14279,0.11864 0.18843,0.17943 0.22071,0.21484 -0.0274,1.3317 -0.0327,2.6570004 0.61328,3.9121004 0.37168,0.72219 1.0917,1.515 2.125,1.7637 0.61772,0.14865 1.1472,-0.16712 1.7129,-0.3457 0.30013,0.3775 0.77632,1.1662 1.248,2.0449 0.47822,0.89076 0.96962,1.8721 1.4688,2.7383 0.49916,0.86615 0.71524,1.6242 1.9492,2.3184 0.73486,0.41337 1.6559,0.51275 2.377,0.35352 0.72109,-0.15923 1.2502,-0.4888 1.6816,-0.80469 0.84687,-0.62008 1.4643,-1.2561 1.6621,-1.3965 0.0204,0.0016 0.1518,-0.01988 0.47851,0.06055 0.24443,0.06017 0.60306,0.25063 0.92383,0.39062 -0.11282,0.48393 -0.31326,1.1429 -0.61328,1.8906 -0.57502,1.433 -1.2025,2.6696 -1.6387,3.6094 -0.38283,-0.12726 -0.70126,-0.29492 -1.5195,-0.29492 -0.56701,0 -1.2374,0.24163 -1.6699,0.62695 -0.43253,0.38528 -0.64433,0.82189 -0.77344,1.1895 -0.25814,0.73508 -0.26112,1.3299 -0.26758,1.9121 -0.0125,1.1295 -0.049,2.3415 -0.008,2.2637 -0.0466,0.06132 -0.28919,0.59344 -0.61914,1.1094 -0.40993,0.64101 -0.95858,1.4284 -1.5195,2.2148 -1.0572,1.4822 -2.0653,2.8168 -2.5254,3.4434 -0.0215,0.01547 -0.0232,0.02614 -0.0957,0.04687 -0.23044,0.06595 -0.63942,0.13088 -1.0566,0.16406 -0.46284,0.03685 -0.73581,0.01696 -1.084,0.01367 -0.0269,-0.03968 -0.0669,-0.10362 -0.0957,-0.14648 -7.9e-4,-0.04418 -0.008,-0.1049 -0.008,-0.14844 0,-0.30444 0.20347,-0.89964 0.54688,-1.5566 0.3434,-0.65696 0.85408,-1.1378 1.0469,-2.4219 0.0588,-0.39179 0.23102,-0.9675 -0.0137,-1.7715 -0.24469,-0.804 -0.65367,-1.1957 -1.1523,-1.7656 -0.93427,-1.0677 -1.9907,-1.467 -2.8926,-1.918 -0.45098,-0.22549 -0.85917,-0.43156 -1.1152,-0.58398 -0.11486,-0.06837 -0.17834,-0.13358 -0.20898,-0.16406 -0.008,-0.0149 -0.0287,-0.05121 -0.0332,-0.06055 0.0169,-0.06124 0.0552,-0.17987 0.15429,-0.39453 0.10213,-0.22129 -0.0591,-0.03915 0.13867,-0.13281 0.19771,-0.09366 0.81089,-0.27272 1.5957,-0.69531 0.78296,-0.42161 1.2536,-1.1561 1.4766,-1.7559 0.22295,-0.59974 0.27871,-1.1278 0.32422,-1.5957 0.091,-0.93581 0.25474,-1.7341 0.16211,-1.5488 0.78531,-1.5705 0.1766,-2.7291 -0.1543,-3.6328 -0.3309,-0.90372 -0.62135,-1.8534 -0.59765,-1.5938 -0.0687,-0.75572 -0.24316,-0.92 -0.41407,-1.2695 -0.17091,-0.34957 -0.37924,-0.72536 -0.62109,-1.1367 -0.48374,-0.82265 -1.0972,-1.7884 -1.7266,-2.7324 -0.62941,-0.9440904 -1.2728,-1.8602004 -1.8008,-2.5898004 -0.26401,-0.3648 -0.50003,-0.6803 -0.70118,-0.9375 -0.0768,-0.098079 -0.19609,-0.19781 -0.25195,-0.27344 -0.005,-0.081524 -0.006,-0.12114 -0.0137,-0.29492 -0.005,-0.11501 -0.17542,-0.38565 -0.18555,-0.53906 z m -2.7168,29.8810004 c 0.27527,0.51001 0.38834,1.0202 1.2637,1.5215 0.81996,0.46957 1.6731,0.29745 2.1328,0.13281 0.40845,-0.14623 0.6512,-0.30444 0.87109,-0.43555 0.28853,0.35376 0.64242,0.85092 0.98828,1.3652 0.068,0.10106 0.1265,0.18834 0.19336,0.28906 0.0246,0.3202 0.0473,0.78085 0.0508,0.99609 0.008,0.51504 -0.0668,0.4516 0.0742,0.31055 -0.72495,0.72499 -1.3558,1.6804 -2.0976,2.7012 -0.74189,1.0208 -1.7013,2.1603 -1.5859,2.0586 -0.25319,0.22341 -0.74035,0.53854 -1.2773,1.0938 -0.2685,0.27761 -0.56843,0.63802 -0.7754,1.166 -0.20696,0.528 -0.25726,1.2433 -0.0742,1.8535 0.0872,0.29087 0.25829,0.58701 0.45898,0.88476 -0.63129,-0.05106 -1.3688,-0.15369 -2.252,0.27344 -0.68791,0.33286 -1.4912,0.70784 -2.2734,1.2539 -0.78217,0.54607 -1.6364,1.3394 -1.957,2.5762 -0.0713,0.27504 -0.4121,1.0641 -0.78125,1.8535 -0.36915,0.78939 -0.78093,1.5351 -0.95313,2.5684 -0.0735,0.44107 -0.21596,1.0432 -0.33203,1.6172 -0.058,0.28702 -0.11506,0.55975 -0.14844,0.86328 -0.008,0.07332 0.0433,0.2433 0.0313,0.31836 -0.0587,0.04607 -0.007,0.02518 -0.28126,0.16211 -1.07,0.53503 -1.715,1.3379 -2.1777,1.957 -0.29741,0.3979 -0.56546,0.73388 -0.68164,0.89648 -0.15063,0.05171 -0.61531,0.29481 -1.0391,0.40234 -0.6141,0.15579 -1.4657,0.13908 -1.0996,0.20703 l -0.65625,-0.16992 c -0.16955,-0.22564 -0.18579,-0.28598 -0.47266,-0.60547 -0.58533,-0.65186 -1.3639,-1.4541 -2.5312,-1.9648 -1.7918,-0.78384 -3.0921,-0.18652 -4.2305,0.02344 -0.44579,0.08224 -0.74889,0.11844 -1.0117,0.14648 -0.0363,-0.05482 -0.15661,-0.2275 -0.16601,-0.24414 0.006,-0.0094 0.007,0.0073 0.0254,-0.06445 -0.0242,0.09687 0.17455,-0.46958 0.45117,-1.0488 0.27662,-0.57925 0.64456,-1.2864 1.0332,-1.9785 0.38865,-0.69207 0.80293,-1.3753 1.1524,-1.8828 0.34945,-0.50755 0.79382,-0.88142 0.52344,-0.70117 0.56613,-0.37746 0.96098,-0.77455 1.5508,-1.3203 0.58983,-0.54576 1.2778,-1.1907 1.9844,-1.8164 1.4131,-1.2513 3.1885,-2.3738 3.3887,-2.4219 1.8098,-0.43434 3.4482,-1.6108 5.0488,-2.9082 0.80028,-0.64876 1.5437,-1.3305 2.1562,-2 0.61251,-0.66954 1.1258,-1.2095 1.4238,-2.2227 l 0.13281,-0.43555 -0.0879,-0.44336 c -0.17771,-0.9408 0.93034,-2.5887 2.082,-2.959 l 0.43555,-0.14062 0.32422,-0.32422 c 0.76312,-0.76312 0.96154,-1.6481 1.0703,-2.3477 0.0645,-0.41507 0.0745,-0.71452 0.0957,-1.0566 z M 137.81067,87.15223 c -0.28876,0.288759 -5.4647,1.020463 -11.50014,1.626971 -39.584164,3.977742 -71.8607,18.240549 -96.042221,42.438029 -22.0764154,22.09098 -31.5287172,45.02147 -30.12537987,73.07514 0.67042105,13.40207 2.59233507,21.18704 8.17784417,33.12346 6.0146267,12.85346 11.4464547,20.50955 21.9201947,30.89492 11.844178,11.74424 20.730738,17.94158 32.51799,22.67607 5.268304,2.11606 12.728278,5.40169 16.578328,7.30282 11.682576,5.76869 32.200354,10.30021 51.500644,11.37319 25.95634,1.44301 50.76489,-1.82412 72.29973,-9.52159 9.32837,-3.33439 28.12809,-12.9147 32.10197,-16.35959 1.705,-1.478 4.31767,-2.98329 5.80671,-3.34574 3.46866,-0.84402 19.33831,-15.92227 25.81088,-24.52375 17.3208,-23.01784 23.42581,-52.27726 16.50801,-79.12013 -2.24227,-8.70066 -9.26134,-23.37051 -15.09199,-31.54142 -11.063,-15.5034 -29.35242,-30.46482 -48.93421,-40.02979 -19.04834,-9.304364 -38.04769,-14.423949 -62.50078,-16.842008 -7.4251,-0.734221 -12.08625,-1.391409 -10.35756,-1.460961 0,0 -9.547,-2.505745 -8.67002,0.234371 z m 4.85552,6.793061 c 28.06199,-0.203568 51.5617,5.044092 74.67282,16.599819 37.52615,18.76328 60.926,49.80085 63.13751,83.74714 1.73395,26.6161 -8.59908,50.76011 -30.86172,72.11418 -19.67881,18.87566 -44.99255,31.05411 -76.88574,36.99266 -9.77885,1.82081 -40.14801,2.66773 -50.24476,1.4004 C 80.955866,299.58682 44.181027,280.09714 23.617829,252.4043 -5.0152914,213.84353 0.17156319,166.96552 36.895333,132.41842 62.283952,108.53465 96.659404,95.361199 136.9923,94.058572 c 1.91259,-0.0618 3.80309,-0.09971 5.67389,-0.113274 z m -0.82813,27.453459 c -50.20421,-0.0129 -59.493907,0.64118 -68.63953,4.82819 -11.78893,5.39712 -21.177387,18.00398 -23.510065,31.56876 -1.496871,8.70436 -1.518959,81.27152 -0.02721,89.87417 2.856875,16.47645 13.720493,29.11485 29.176147,33.94378 4.499694,1.40586 20.721309,3.16823 38.500481,4.18366 26.83592,1.53261 76.41957,-0.96773 87.94251,-4.43561 16.14766,-4.85974 26.76218,-19.0264 28.67418,-38.26806 1.31878,-13.27054 1.27207,-68.4086 -0.0684,-80.79008 -1.87376,-17.30826 -8.98212,-28.40608 -22.46318,-35.0688 -10.80878,-5.34197 -16.54834,-5.82089 -69.58485,-5.83601 z m 2.16799,4.39264 c 18.79847,-6e-4 24.78582,0.29737 25.17024,1.25001 0.27723,0.68735 0.53933,0.80001 0.58204,0.25002 0.0485,-0.62586 3.3534,-0.81295 8.83019,-0.50001 7.78241,0.44463 9.24846,0.85018 13.25016,3.65825 4.94105,3.46719 12.93386,11.34194 11.51187,11.34194 -0.49172,0 -0.15319,0.56251 0.75196,1.25002 4.13315,3.13939 10.9271,22.06428 13.12907,36.57468 0.50987,3.35947 0.38553,2.38616 0.40821,3.73638 0.008,0.53314 0.009,1.27186 0.0351,1.77931 0.10118,1.87701 0.77781,6.13155 1.32618,26.54916 0.6807,25.34398 1.47792,33.52743 4.28717,44.00641 l 1.44533,5.3946 -6.19734,6.19344 c -8.37101,8.36412 -13.57768,10.24883 -33.17425,12.00796 -24.3188,2.18301 -38.37699,2.65843 -36.14303,1.22073 1.03431,-0.66566 4.63434,-3.20756 8.0001,-5.64852 3.36578,-2.44092 9.94429,-6.45817 14.61932,-8.92589 13.91023,-7.34239 16.98301,-10.5837 16.99435,-17.93577 0.008,-5.12201 -1.85103,-9.06333 -5.87507,-12.44938 -1.55649,-0.66908 -2.92012,-1.5738 -4.57623,-2.52932 5.68623,-5.50725 9.32824,-14.07875 9.32824,-23.67413 0,-16.52907 -10.8005,-30.02968 -24.25616,-30.02968 -13.45566,-4e-5 -24.25816,13.50061 -24.25812,30.02968 -10e-6,2.16443 0.18902,4.27427 0.54298,6.31063 -5.03915,-1.77198 -9.70777,-1.70503 -16.15645,0.25002 0.31793,-1.9431 0.48828,-3.96734 0.48828,-6.05087 0,-7.20266 -2.00038,-13.73334 -5.26959,-18.49046 -3.26922,-4.75716 -7.84316,-7.75987 -12.92595,-7.75987 -5.0828,0 -9.656736,3.00271 -12.925936,7.75987 -3.269212,4.75712 -5.271555,11.2878 -5.271555,18.49046 0,7.20263 2.002343,13.72745 5.271555,18.48462 1.4701,2.13919 3.207242,3.91379 5.132875,5.22857 -1.283068,0.48621 -3.622545,1.70567 -5.531322,2.9102 -2.068625,2.44607 -4.236401,2.41118 -6.357498,6.02351 -2.435691,4.24397 -1.114525,9.5166 3.693408,14.73261 5.587108,6.13598 8.593518,7.86859 18.138893,16.2795 4.69911,4.45298 7.0312,7.28334 6.00007,7.28134 -5.50102,-0.01 -32.260767,-3.07504 -34.596125,-3.96294 -2.101886,-0.79919 -2.618974,-1.49284 -2.085967,-2.79886 0.389686,-0.95487 1.893243,-4.88637 3.341844,-8.73644 l 2.634791,-7.00009 0.539066,-46.50058 c 0.58512,-50.38809 0.449448,-49.11378 6.507903,-61.00077 2.989958,-5.86643 9.346167,-13.19525 10.711058,-12.35172 0.60053,0.37116 0.78078,0.1942 0.41212,-0.40235 -0.93225,-1.50843 4.80517,-6.06144 11.84781,-9.40051 l 6.00007,-2.84378 z m 110.74358,38.68212 c -3.06455,0.0487 -6.17429,1.43015 -8.2794,4.43561 -3.33321,4.75882 -0.81303,12.65164 4.75787,14.90252 3.16668,1.27947 5.39622,1.14347 8.63097,-0.5293 3.68743,-1.90684 4.98053,-4.31712 4.98053,-9.28723 0,-5.98036 -4.98237,-9.60274 -10.08997,-9.5216 z m -0.1367,2.1055 c 8.35705,-0.2374 11.50701,10.94796 4.15434,14.75018 -1.55605,0.80467 -3.56047,1.46291 -4.45513,1.46291 -2.535,0 -7.47275,-5.52883 -7.47275,-8.36729 0,-3.81544 3.88385,-7.73544 7.77354,-7.8458 z m -101.99867,55.04005 -0.43232,-3.5941 c -1.56535,-13.26086 7.69003,-23.54489 14.28729,-15.87519 4.43914,5.16086 4.04018,18.1673 -0.7129,23.23076 l -1.95902,2.08596 c -5.32889,-1.98152 -6.41025,-2.50833 -11.18305,-5.84743 z m -49.59784,6.53103 c -1.84221,-1.8422 -3.429679,-4.44401 -4.637884,-10.58216 -0.602737,-3.06214 1.521978,-10.21106 3.734414,-12.56657 4.54055,-4.83415 9.82021,-0.0384 10.5138,9.55091 l 0.41992,5.78718 c -3.14878,2.76385 -6.17893,5.9835 -10.03025,7.81064 z m 145.04563,-40.35793 c -1.62995,0 -5.22272,3.18045 -5.22272,4.62311 0,0.82995 0.46581,2.37952 1.03517,3.44341 1.9021,3.55408 8.96495,1.47494 8.96495,-2.63872 0,-1.50585 -3.45213,-5.4278 -4.7774,-5.4278 z m 14.80683,0.68556 c -0.99124,0.002 -2.01999,0.32059 -2.96489,0.98244 -2.28199,1.59837 -2.7277,5.27043 -0.86524,7.1329 3.4252,3.4252 10.17573,-1.36544 7.9044,-5.60944 -0.87429,-1.63365 -2.42223,-2.50906 -4.07427,-2.5059 z m -0.28517,1.70314 c 0.44118,0.0253 0.90447,0.40252 1.64846,1.14651 1.29782,1.29782 1.41472,1.99169 0.51953,3.07035 -0.63632,0.76672 -1.79151,1.39455 -2.56644,1.39455 -2.11312,0 -2.82616,-2.94731 -1.12501,-4.6485 0.66259,-0.6625 1.08227,-0.98846 1.52346,-0.96291 z m -14.96308,0.29689 c 1.70761,-0.0666 3.4018,1.67056 2.66605,3.59183 -0.82949,2.15712 -4.30513,2.25575 -5.1153,0.14453 -0.33295,-0.86764 0.0384,-2.22206 0.82618,-3.00981 0.48259,-0.48258 1.05368,-0.70435 1.62307,-0.72656 z m -115.72411,27.85777 c 6.22575,-0.0409 7.03709,0.24431 16.0002,5.61726 6.12725,3.67303 12.18701,6.40026 17.26389,7.76767 14.58685,3.92884 19.67798,7.97216 19.67798,15.63105 0,5.8308 -2.80839,8.90462 -13.13297,14.37714 -4.60232,2.43945 -12.50823,7.25365 -17.56859,10.6974 -5.0604,3.44376 -11.55477,6.96015 -14.43182,7.81456 -11.58598,3.44065 -19.45226,0.90489 -29.36755,-9.46301 -2.20003,-2.30044 -7.26909,-6.87143 -11.263815,-10.15834 -13.55723,-11.15492 -13.635728,-16.57862 -0.337894,-23.31084 1.869429,-0.94641 6.499959,-4.6327 10.289189,-8.19151 8.66146,-8.13478 14.15442,-10.72431 22.87138,-10.78138 z m -10.12513,7.45712 c -1.70984,0 -4.93365,1.98342 -4.93365,3.0352 0,1.0932 2.06579,1.26006 4.41802,0.35743 1.76649,-0.67786 2.17902,-3.39262 0.51563,-3.39262 z m 18.11937,0.29492 c -0.27455,0.0117 -0.52665,0.0572 -0.74415,0.14064 -1.23849,0.47528 -1.29569,0.87504 -0.29882,2.0762 1.36545,1.64525 5.99031,2.0494 5.99031,0.52344 0,-1.27989 -3.02547,-2.822 -4.94733,-2.74027 z m 35.52193,17.00999 c -0.65788,-0.0223 -3.80673,2.11384 -7.31064,4.98053 -7.73074,6.32478 -16.41285,11.46932 -24.92218,14.76775 -4.47106,1.73305 -7.9937,2.27915 -15.00996,2.33207 -8.77643,0.0661 -9.49983,-0.10065 -16.95919,-3.90826 -5.8947,-3.00896 -8.77509,-5.23692 -11.83218,-9.15245 -2.222538,-2.84663 -4.378574,-5.20925 -4.791081,-5.25007 -3.506614,-0.3478 5.536141,11.08554 11.857571,14.99238 1.93588,1.19646 5.62744,2.99996 8.20518,4.00786 5.91383,2.31234 17.6245,2.48268 25.72688,0.37501 7.51864,-1.95581 18.98706,-8.105 26.98472,-14.46893 6.9554,-5.53458 9.04297,-7.74825 8.14854,-8.64269 -0.0212,-0.0212 -0.0538,-0.0317 -0.0977,-0.0333 z" />
  </g>
</svg>
