<?xml version="1.0" encoding="UTF-8"?>
<svg width="75.709mm" height="82.023mm" version="1.1" viewBox="0 0 75.709 82.023" xmlns="http://www.w3.org/2000/svg">
 <g transform="translate(-66.72 -107.21)">
  <path transform="matrix(.26458 0 0 .26458 66.72 107.21)" d="m156.2 0.0097656c-0.55087 0.033128-1.2311 0.23524-1.7188 0.82031-0.60295 0.72355-0.59925 1.4441-0.56054 1.957 0.0387 0.51296 0.1631 0.93956 0.3164 1.3574 0.30663 0.83577 0.71541 1.5866 1.3066 2.252-0.16683-0.18765-0.0651-0.15498-0.0449 0.31055 0.0101 0.23274 8.6e-4 0.52809 0.0742 0.95117 0.0733 0.42304 0.25833 1.0965 0.89258 1.625-0.30868-0.25723-0.0569-0.051109 0.0976 0.14648 0.15455 0.19759 0.3734 0.48853 0.61914 0.82812 0.49153 0.67918 1.1099 1.5682 1.7129 2.4727 0.60299 0.90452 1.1935 1.8263 1.6172 2.5469 0.21188 0.3603 0.37776 0.67867 0.47852 0.88476 0.10076 0.20606 0.0912 0.45847 0.0449-0.05078 0.11365 1.2455 0.5609 1.8656 0.8125 2.5527 0.25157 0.68712 0.0767 1.1376 0.32422 0.64258-0.63039 1.2608-0.47322 2.1956-0.53906 2.873-0.0254 0.2612-0.0617 0.3868-0.0879 0.49414-0.32323 0.14449-0.63476 0.24657-1.1738 0.50195-0.65371 0.30962-1.5136 1.0268-1.9492 1.9707-0.33268 0.72076-0.57379 1.462-0.50977 2.2812 0.064 0.81925 0.41355 1.4413 0.70118 1.9121 0.47123 0.77114 0.94675 0.9862 1.3965 1.2539s0.91212 0.49414 1.3574 0.7168c0.89065 0.44534 1.7354 1.0176 1.7422 1.0254 0.16582 0.18952 0.22503 0.27834 0.28906 0.36523-6e-3 0.0531-2e-3 0.03531-0.0156 0.12305 0.0568-0.37867-0.23737 0.40236-0.65039 1.2031-0.27659-0.29084-0.40576-0.61326-1.0469-0.82812-0.82798-0.27734-1.4978-0.06679-1.9199 0.10352-0.25225 0.10182-0.3845 0.19817-0.55469 0.29492-0.13198-0.17926-0.0654-0.11413-0.26562-0.44922-0.21476-0.35947-0.45775-0.77701-0.89258-1.2109-0.43484-0.43396-1.2132-0.92775-2.1328-0.90039h-0.0236c-1.0833 0.04331-2.2352 0.8011-2.6856 1.6309-0.45037 0.82972-0.49566 1.5568-0.54687 2.1777-0.0512 0.62098-0.0635 1.1607-0.11719 1.5059-0.01 0.06399-0.0181 0.0709-0.0293 0.11524-2.381 1.0928-4.1202 3.4666-3.957 6.1855-0.10292 0.15469-0.25205 0.37535-0.45898 0.60156-0.44058 0.48159-1.0636 1.0672-1.7422 1.6172-1.3571 1.1001-3.1257 2.0665-3.5566 2.1699-2.0405 0.48975-3.4915 1.9217-5.0137 3.2695-0.76109 0.67396-1.4646 1.3452-2.0371 1.875-0.57253 0.52978-1.1124 0.96425-1.084 0.94531-0.80817 0.53873-1.0882 1.0531-1.5371 1.7051-0.44885 0.65201-0.90669 1.4056-1.3359 2.1699-0.42921 0.76433-0.83046 1.5371-1.1504 2.207-0.31997 0.66996-0.54262 1.1232-0.70117 1.7578-0.20931 0.83728-0.13096 1.8064 0.16993 2.4941 0.30088 0.68776 0.64453 1.0745 0.92187 1.4707 0.39723 0.5675 0.98325 0.84933 1.4238 0.9668 0.44062 0.1175 0.79629 0.1209 1.1309 0.10938 0.66916-0.02305 1.2668-0.14217 1.8516-0.25 1.1695-0.21574 2.3889-0.11693 2.0312-0.27344 0.26668 0.11667 0.83183 0.57929 1.2324 1.0254 0.40056 0.4461 0.63477 0.80469 0.63477 0.80469l0.40625 0.59766h2e-3c-0.4228 3.8036-1.0415 4.9418-2.7871 6.4434-2.1348 1.8362-2.3517 2.4594-1.2969 3.7305 0.85435 1.0292 0.92615 1.7366 0.21875 2.1738-1.6123 0.99647-1.2458 3.6657 0.69921 5.0879 0.9615 0.70314 1.5134 1.514 1.2246 1.8027 2.6994 1.0361 5.7853-0.05356 8.6713-0.2304 3.2858-0.1322 4.7354-1.898 3.3711-4.1055-0.47356-0.76772-1.8674-1.0913-3.4082-0.79688-1.4335 0.27398-2.6055 0.1403-2.6055-0.29688 0-0.4372 1.2375-0.9375 2.75-1.1113 1.9779-0.22761 2.75-0.87798 2.75-2.3164 0-1.7055-0.58868-1.9652-4-1.7656-2.6326 0.15397-3.5229-0.0687-2.6035-0.65039 0.87685-0.55479 1.3242-2.8991 1.5098-7.5449 0.14288-0.0377 0.28506-0.07656 0.4375-0.11523 0.87915-0.22311 1.5639-0.27992 2.5234-1.0918 0.77204-0.65333 0.96025-1.1564 1.293-1.6016 0.33275-0.44523 0.6551-0.74943 0.83985-0.8418 0.78814-0.39417 1.395-0.79749 1.8613-1.4473 0.46628-0.64981 0.63474-1.6989 0.36132-2.4277 0.0895 0.23874 0.0982 0.32073 0.10352 0.38476 0.0132-0.09981 0.0434-0.26812 0.0879-0.48828 0.0969-0.47906 0.24979-1.1077 0.35547-1.7422 7e-3 -0.04233 0.28934-0.82 0.64844-1.5879 0.35905-0.76785 0.77711-1.5748 1.0195-2.5098-7e-3 0.0268 0.0516-0.14472 0.45703-0.42773 0.40539-0.28301 1.0566-0.60599 1.7578-0.94531 0.25433-0.12299 0.16874-0.09025 0.64844-0.01367 0.4797 0.07653 1.582 0.26978 2.7031-0.22852 0.61505-0.27341 1.2038-0.7831 1.5117-1.4102 0.30788-0.62706 0.3264-1.2584 0.25977-1.7363-0.13323-0.95584-0.53949-1.5537-0.6582-1.7715-0.0458-0.08394-0.17106-0.13426-0.23633-0.2207 0.1892-0.15198 0.28488-0.22588 0.54687-0.45703 0.87716-0.77397 1.4003-1.6444 2.1484-2.6738 0.74812-1.0294 1.6234-2.1683 1.7051-2.25 0.40021-0.4001 0.2821-0.83331 0.43555-1.2852 0.17582 0.0087 0.97424 0.04154 1.9629-0.03711 0.5687-0.04528 1.1739-0.11721 1.7949-0.29492 0.62097-0.17771 1.3412-0.40404 1.9551-1.248 0.31252-0.42969 1.5396-2.0445 2.7031-3.6758 0.58178-0.81566 1.1535-1.6428 1.623-2.377s0.81992-1.1899 1.0703-2.0664c0.37281-1.3041 0.16769-2.218 0.14063-3.0273 0.14331 0.03685 0.12553 0.03314 0.31054 0.07422 0.40838 0.09075 1.0274 0.19421 1.7637-0.08789 0.73626-0.28214 1.3017-0.95908 1.5645-1.5723 0.1641-0.38287 1.1961-2.4405 1.9707-4.3711 0.38729-0.96525 0.73397-1.9152 0.9082-2.8633 0.0872-0.47407 0.14971-0.94952 0.0606-1.5352-0.0892-0.58568-0.46214-1.4558-1.2773-1.8906-0.73376-0.39133-1.6006-0.8166-2.5996-1.0625-0.99905-0.24593-2.2982-0.33374-3.4609 0.44141-0.89057 0.59369-1.4245 1.2267-1.8164 1.5137-0.0237 0.01738-0.0258 0.01791-0.0312 0.02148-0.0273-0.06994-0.21586-0.28827-0.4707-0.73047-0.41635-0.7225-0.90834-1.6855-1.418-2.6348-0.50963-0.94927-1.0175-1.8696-1.6523-2.6562-0.31741-0.39337-0.655-0.78011-1.248-1.1016-0.52263-0.28328-1.4513-0.2657-2.1934 0.0293-0.11694-0.38835-0.28682-1.2323-0.24219-2.2949 0.0335-0.79706-0.29013-1.3513-0.57617-1.7422-0.28607-0.3908-0.59962-0.67583-0.92383-0.94531-0.64849-0.53889-1.3782-0.99997-2.1094-1.4453-0.73119-0.4453-1.4609-0.86681-1.9941-1.2051-0.53322-0.33823-0.91559-0.85979-0.59766-0.3457l-0.0586-0.10352-0.0742-0.087891c-0.57279-0.70998-1.2554-1.2295-2.0527-1.6406-0.39862-0.20557-0.81483-0.38352-1.3867-0.45703-0.14296-0.018378-0.31247-0.026668-0.4961-0.015625zm-4.5391 61.184c-1e-3 0.0088-7e-3 0.03558-8e-3 0.04297-6e-3 0.05356 0.0153 0.04771 8e-3 -0.04297zm7.4258-55.195c0.58235 0.36113 1.2042 0.72847 1.8008 1.0918 0.67722 0.41242 1.3116 0.83112 1.6699 1.1289 0.14279 0.11864 0.18843 0.17943 0.22071 0.21484-0.0274 1.3317-0.0327 2.657 0.61328 3.9121 0.37168 0.72219 1.0917 1.515 2.125 1.7637 0.61772 0.14865 1.1472-0.16712 1.7129-0.3457 0.30013 0.3775 0.77632 1.1662 1.248 2.0449 0.47822 0.89076 0.96962 1.8721 1.4688 2.7383 0.49916 0.86615 0.71524 1.6242 1.9492 2.3184 0.73486 0.41337 1.6559 0.51275 2.377 0.35352 0.72109-0.15923 1.2502-0.4888 1.6816-0.80469 0.84687-0.62008 1.4643-1.2561 1.6621-1.3965 0.0204 0.0016 0.1518-0.01988 0.47851 0.06055 0.24443 0.06017 0.60306 0.25063 0.92383 0.39062-0.11282 0.48393-0.31326 1.1429-0.61328 1.8906-0.57502 1.433-1.2025 2.6696-1.6387 3.6094-0.38283-0.12726-0.70126-0.29492-1.5195-0.29492-0.56701 0-1.2374 0.24163-1.6699 0.62695-0.43253 0.38528-0.64433 0.82189-0.77344 1.1895-0.25814 0.73508-0.26112 1.3299-0.26758 1.9121-0.0125 1.1295-0.049 2.3415-8e-3 2.2637-0.0466 0.06132-0.28919 0.59344-0.61914 1.1094-0.40993 0.64101-0.95858 1.4284-1.5195 2.2148-1.0572 1.4822-2.0653 2.8168-2.5254 3.4434-0.0215 0.01547-0.0232 0.02614-0.0957 0.04687-0.23044 0.06595-0.63942 0.13088-1.0566 0.16406-0.46284 0.03685-0.73581 0.01696-1.084 0.01367-0.0269-0.03968-0.0669-0.10362-0.0957-0.14648-7.9e-4 -0.04418-8e-3 -0.1049-8e-3 -0.14844 0-0.30444 0.20347-0.89964 0.54688-1.5566 0.3434-0.65696 0.85408-1.1378 1.0469-2.4219 0.0588-0.39179 0.23102-0.9675-0.0137-1.7715-0.24469-0.804-0.65367-1.1957-1.1523-1.7656-0.93427-1.0677-1.9907-1.467-2.8926-1.918-0.45098-0.22549-0.85917-0.43156-1.1152-0.58398-0.11486-0.06837-0.17834-0.13358-0.20898-0.16406-8e-3 -0.0149-0.0287-0.05121-0.0332-0.06055 0.0169-0.06124 0.0552-0.17987 0.15429-0.39453 0.10213-0.22129-0.0591-0.03915 0.13867-0.13281 0.19771-0.09366 0.81089-0.27272 1.5957-0.69531 0.78296-0.42161 1.2536-1.1561 1.4766-1.7559 0.22295-0.59974 0.27871-1.1278 0.32422-1.5957 0.091-0.93581 0.25474-1.7341 0.16211-1.5488 0.78531-1.5705 0.1766-2.7291-0.1543-3.6328-0.3309-0.90372-0.62135-1.8534-0.59765-1.5938-0.0687-0.75572-0.24316-0.92-0.41407-1.2695-0.17091-0.34957-0.37924-0.72536-0.62109-1.1367-0.48374-0.82265-1.0972-1.7884-1.7266-2.7324-0.62941-0.94409-1.2728-1.8602-1.8008-2.5898-0.26401-0.3648-0.50003-0.6803-0.70118-0.9375-0.0768-0.098079-0.19609-0.19781-0.25195-0.27344-5e-3 -0.081524-6e-3 -0.12114-0.0137-0.29492-5e-3 -0.11501-0.17542-0.38565-0.18555-0.53906zm-2.7168 29.881c0.27527 0.51001 0.38834 1.0202 1.2637 1.5215 0.81996 0.46957 1.6731 0.29745 2.1328 0.13281 0.40845-0.14623 0.6512-0.30444 0.87109-0.43555 0.28853 0.35376 0.64242 0.85092 0.98828 1.3652 0.068 0.10106 0.1265 0.18834 0.19336 0.28906 0.0246 0.3202 0.0473 0.78085 0.0508 0.99609 8e-3 0.51504-0.0668 0.4516 0.0742 0.31055-0.72495 0.72499-1.3558 1.6804-2.0976 2.7012-0.74189 1.0208-1.7013 2.1603-1.5859 2.0586-0.25319 0.22341-0.74035 0.53854-1.2773 1.0938-0.2685 0.27761-0.56843 0.63802-0.7754 1.166-0.20696 0.528-0.25726 1.2433-0.0742 1.8535 0.0872 0.29087 0.25829 0.58701 0.45898 0.88476-0.63129-0.05106-1.3688-0.15369-2.252 0.27344-0.68791 0.33286-1.4912 0.70784-2.2734 1.2539-0.78217 0.54607-1.6364 1.3394-1.957 2.5762-0.0713 0.27504-0.4121 1.0641-0.78125 1.8535-0.36915 0.78939-0.78093 1.5351-0.95313 2.5684-0.0735 0.44107-0.21596 1.0432-0.33203 1.6172-0.058 0.28702-0.11506 0.55975-0.14844 0.86328-8e-3 0.07332 0.0433 0.2433 0.0313 0.31836-0.0587 0.04607-7e-3 0.02518-0.28126 0.16211-1.07 0.53503-1.715 1.3379-2.1777 1.957-0.29741 0.3979-0.56546 0.73388-0.68164 0.89648-0.15063 0.05171-0.61531 0.29481-1.0391 0.40234-0.6141 0.15579-1.4657 0.13908-1.0996 0.20703l-0.65625-0.16992c-0.16955-0.22564-0.18579-0.28598-0.47266-0.60547-0.58533-0.65186-1.3639-1.4541-2.5312-1.9648-1.7918-0.78384-3.0921-0.18652-4.2305 0.02344-0.44579 0.08224-0.74889 0.11844-1.0117 0.14648-0.0363-0.05482-0.15661-0.2275-0.16601-0.24414 6e-3 -0.0094 7e-3 0.0073 0.0254-0.06445-0.0242 0.09687 0.17455-0.46958 0.45117-1.0488 0.27662-0.57925 0.64456-1.2864 1.0332-1.9785 0.38865-0.69207 0.80293-1.3753 1.1524-1.8828 0.34945-0.50755 0.79382-0.88142 0.52344-0.70117 0.56613-0.37746 0.96098-0.77455 1.5508-1.3203 0.58983-0.54576 1.2778-1.1907 1.9844-1.8164 1.4131-1.2513 3.1885-2.3738 3.3887-2.4219 1.8098-0.43434 3.4482-1.6108 5.0488-2.9082 0.80028-0.64876 1.5437-1.3305 2.1562-2 0.61251-0.66954 1.1258-1.2095 1.4238-2.2227l0.13281-0.43555-0.0879-0.44336c-0.17771-0.9408 0.93034-2.5887 2.082-2.959l0.43555-0.14062 0.32422-0.32422c0.76312-0.76312 0.96154-1.6481 1.0703-2.3477 0.0645-0.41507 0.0745-0.71452 0.0957-1.0566zm-18.559 51.272c-0.28876 0.28876-5.4647 1.0205-11.5 1.627-39.584 3.9777-71.861 18.241-96.042 42.438-22.076 22.091-31.529 45.021-30.125 73.075 0.67042 13.402 2.5923 21.187 8.1778 33.123 6.0146 12.853 11.446 20.51 21.92 30.895 11.844 11.744 20.731 17.942 32.518 22.676 5.2683 2.1161 12.728 5.4017 16.578 7.3028 11.683 5.7687 32.2 10.3 51.501 11.373 25.956 1.443 50.765-1.8241 72.3-9.5216 9.3284-3.3344 28.128-12.915 32.102-16.36 1.705-1.478 4.3177-2.9833 5.8067-3.3457 3.4687-0.84402 19.338-15.922 25.811-24.524 17.321-23.018 23.426-52.277 16.508-79.12-2.2423-8.7007-9.2613-23.371-15.092-31.541-11.063-15.503-29.352-30.465-48.934-40.03-19.048-9.3044-38.048-14.424-62.501-16.842-7.4251-0.73422-12.086-1.3914-10.358-1.461 0 0-9.547-2.5057-8.67 0.23437zm4.8555 6.7931c28.062-0.20357 51.562 5.0441 74.673 16.6 37.526 18.763 60.926 49.801 63.138 83.747 1.734 26.616-8.5991 50.76-30.862 72.114-19.679 18.876-44.993 31.054-76.886 36.993-9.7788 1.8208-40.148 2.6677-50.245 1.4004-41.528-5.2127-78.303-24.702-98.866-52.395-28.633-38.561-23.446-85.439 13.278-119.99 25.389-23.884 59.764-37.057 100.1-38.36 1.9126-0.0618 3.8031-0.09971 5.6739-0.11327zm-0.82813 27.453c-50.204-0.0129-59.494 0.64118-68.64 4.8282-11.789 5.3971-21.177 18.004-23.51 31.569-1.4969 8.7044-1.519 81.272-0.02721 89.874 2.8569 16.476 13.72 29.115 29.176 33.944 4.4997 1.4059 20.721 3.1682 38.5 4.1837 26.836 1.5326 76.42-0.96773 87.943-4.4356 16.148-4.8597 26.762-19.026 28.674-38.268 1.3188-13.271 1.2721-68.409-0.0684-80.79-1.8738-17.308-8.9821-28.406-22.463-35.069-10.809-5.342-16.548-5.8209-69.585-5.836zm2.168 4.3926c18.798-6e-4 24.786 0.29737 25.17 1.25 0.27723 0.68735 0.53933 0.80001 0.58204 0.25002 0.0485-0.62586 3.3534-0.81295 8.8302-0.50001 7.7824 0.44463 9.2485 0.85018 13.25 3.6582 4.941 3.4672 12.934 11.342 11.512 11.342-0.49172 0-0.15319 0.56251 0.75196 1.25 4.1332 3.1394 10.927 22.064 13.129 36.575 0.50987 3.3595 0.38553 2.3862 0.40821 3.7364 8e-3 0.53314 9e-3 1.2719 0.0351 1.7793 0.10118 1.877 0.77781 6.1316 1.3262 26.549 0.6807 25.344 1.4779 33.527 4.2872 44.006l1.4453 5.3946-6.1973 6.1934c-8.371 8.3641-13.578 10.249-33.174 12.008-24.319 2.183-38.377 2.6584-36.143 1.2207 1.0343-0.66566 4.6343-3.2076 8.0001-5.6485 3.3658-2.4409 9.9443-6.4582 14.619-8.9259 13.91-7.3424 16.983-10.584 16.994-17.936 8e-3 -5.122-1.851-9.0633-5.8751-12.449-1.5565-0.66908-2.9201-1.5738-4.5762-2.5293 5.6862-5.5072 9.3282-14.079 9.3282-23.674 0-16.529-10.8-30.03-24.256-30.03-13.456-4e-5 -24.258 13.501-24.258 30.03-1e-5 2.1644 0.18902 4.2743 0.54298 6.3106-5.0392-1.772-9.7078-1.705-16.156 0.25002 0.31793-1.9431 0.48828-3.9673 0.48828-6.0509 0-7.2027-2.0004-13.733-5.2696-18.49-3.2692-4.7572-7.8432-7.7599-12.926-7.7599-5.0828 0-9.6567 3.0027-12.926 7.7599-3.2692 4.7571-5.2716 11.288-5.2716 18.49 0 7.2026 2.0023 13.727 5.2716 18.485 1.4701 2.1392 3.2072 3.9138 5.1329 5.2286-1.2831 0.48621-3.6225 1.7057-5.5313 2.9102-2.0686 2.4461-4.2364 2.4112-6.3575 6.0235-2.4357 4.244-1.1145 9.5166 3.6934 14.733 5.5871 6.136 8.5935 7.8686 18.139 16.28 4.6991 4.453 7.0312 7.2833 6.0001 7.2813-5.501-0.01-32.261-3.075-34.596-3.9629-2.1019-0.79919-2.619-1.4928-2.086-2.7989 0.38969-0.95487 1.8932-4.8864 3.3418-8.7364l2.6348-7.0001 0.53907-46.501c0.58512-50.388 0.44945-49.114 6.5079-61.001 2.99-5.8664 9.3462-13.195 10.711-12.352 0.60053 0.37116 0.78078 0.1942 0.41212-0.40235-0.93225-1.5084 4.8052-6.0614 11.848-9.4005l6.0001-2.8438zm110.74 38.682c-3.0646 0.0487-6.1743 1.4302-8.2794 4.4356-3.3332 4.7588-0.81303 12.652 4.7579 14.903 3.1667 1.2795 5.3962 1.1435 8.631-0.5293 3.6874-1.9068 4.9805-4.3171 4.9805-9.2872 0-5.9804-4.9824-9.6027-10.09-9.5216zm-0.1367 2.1055c8.357-0.2374 11.507 10.948 4.1543 14.75-1.556 0.80467-3.5605 1.4629-4.4551 1.4629-2.535 0-7.4728-5.5288-7.4728-8.3673 0-3.8154 3.8838-7.7354 7.7735-7.8458zm-102 55.04-0.43232-3.5941c-1.5654-13.261 7.69-23.545 14.287-15.875 4.4391 5.1609 4.0402 18.167-0.7129 23.231l-1.959 2.086c-5.3289-1.9815-6.4102-2.5083-11.183-5.8474zm-49.598 6.531c-1.8422-1.8422-3.4297-4.444-4.6379-10.582-0.60274-3.0621 1.522-10.211 3.7344-12.567 4.5406-4.8342 9.8202-0.0384 10.514 9.5509l0.41992 5.7872c-3.1488 2.7638-6.1789 5.9835-10.03 7.8106zm145.05-40.358c-1.63 0-5.2227 3.1804-5.2227 4.6231 0 0.82995 0.46581 2.3795 1.0352 3.4434 1.9021 3.5541 8.965 1.4749 8.965-2.6387 0-1.5058-3.4521-5.4278-4.7774-5.4278zm14.807 0.68556c-0.99124 2e-3 -2.02 0.32059-2.9649 0.98244-2.282 1.5984-2.7277 5.2704-0.86524 7.1329 3.4252 3.4252 10.176-1.3654 7.9044-5.6094-0.87429-1.6336-2.4222-2.5091-4.0743-2.5059zm-0.28517 1.7031c0.44118 0.0253 0.90447 0.40252 1.6485 1.1465 1.2978 1.2978 1.4147 1.9917 0.51953 3.0704-0.63632 0.76672-1.7915 1.3946-2.5664 1.3946-2.1131 0-2.8262-2.9473-1.125-4.6485 0.66259-0.6625 1.0823-0.98846 1.5235-0.96291zm-14.963 0.29689c1.7076-0.0666 3.4018 1.6706 2.666 3.5918-0.82949 2.1571-4.3051 2.2558-5.1153 0.14453-0.33295-0.86764 0.0384-2.2221 0.82618-3.0098 0.48259-0.48258 1.0537-0.70435 1.6231-0.72656zm-115.72 27.858c6.2258-0.0409 7.0371 0.24431 16 5.6173 6.1272 3.673 12.187 6.4003 17.264 7.7677 14.587 3.9288 19.678 7.9722 19.678 15.631 0 5.8308-2.8084 8.9046-13.133 14.377-4.6023 2.4394-12.508 7.2536-17.569 10.697-5.0604 3.4438-11.555 6.9602-14.432 7.8146-11.586 3.4406-19.452 0.90489-29.368-9.463-2.2-2.3004-7.2691-6.8714-11.264-10.158-13.557-11.155-13.636-16.579-0.33789-23.311 1.8694-0.94641 6.5-4.6327 10.289-8.1915 8.6615-8.1348 14.154-10.724 22.871-10.781zm-10.125 7.4571c-1.7098 0-4.9336 1.9834-4.9336 3.0352 0 1.0932 2.0658 1.2601 4.418 0.35743 1.7665-0.67786 2.179-3.3926 0.51563-3.3926zm18.119 0.29492c-0.27455 0.0117-0.52665 0.0572-0.74415 0.14064-1.2385 0.47528-1.2957 0.87504-0.29882 2.0762 1.3654 1.6452 5.9903 2.0494 5.9903 0.52344 0-1.2799-3.0255-2.822-4.9473-2.7403zm35.522 17.01c-0.65788-0.0223-3.8067 2.1138-7.3106 4.9805-7.7307 6.3248-16.413 11.469-24.922 14.768-4.4711 1.733-7.9937 2.2792-15.01 2.3321-8.7764 0.0661-9.4998-0.10065-16.959-3.9083-5.8947-3.009-8.7751-5.2369-11.832-9.1524-2.2225-2.8466-4.3786-5.2092-4.7911-5.2501-3.5066-0.3478 5.5361 11.086 11.858 14.992 1.9359 1.1965 5.6274 3 8.2052 4.0079 5.9138 2.3123 17.624 2.4827 25.727 0.37501 7.5186-1.9558 18.987-8.105 26.985-14.469 6.9554-5.5346 9.043-7.7482 8.1485-8.6427-0.0212-0.0212-0.0538-0.0317-0.0977-0.0333z" style="font-feature-settings:normal;font-variant-alternates:normal;font-variant-caps:normal;font-variant-east-asian:normal;font-variant-ligatures:normal;font-variant-numeric:normal;font-variant-position:normal;font-variation-settings:normal;inline-size:0;isolation:auto;mix-blend-mode:normal;shape-margin:0;shape-padding:0;text-decoration-color:#000000;text-decoration-line:none;text-decoration-style:solid;text-indent:0;text-orientation:mixed;text-transform:none;white-space:normal"/>
 </g>
</svg>
